Aleo-Regular Italic.ufo
<glyph name="exclam" format="1">
  <advance width="225"/>
  <unicode hex="0021"/>
  <note>
    exclam
  </note>
  <outline>
    <contour>
      <point x="199" y="716" type="line"/>
      <point x="115" y="716" type="line"/>
      <point x="80" y="430" type="line" smooth="yes"/>
      <point x="78" y="415"/>
      <point x="76" y="400"/>
      <point x="75" y="386" type="curve" smooth="yes"/>
      <point x="74" y="372"/>
      <point x="73" y="357"/>
      <point x="72" y="343" type="curve" smooth="yes"/>
      <point x="71" y="329"/>
      <point x="70" y="314"/>
      <point x="70" y="299" type="curve" smooth="yes"/>
      <point x="70" y="284"/>
      <point x="69" y="267"/>
      <point x="69" y="250" type="curve"/>
      <point x="130" y="250" type="line"/>
      <point x="134" y="267"/>
      <point x="138" y="284"/>
      <point x="141" y="299" type="curve" smooth="yes"/>
      <point x="144" y="314"/>
      <point x="147" y="329"/>
      <point x="150" y="343" type="curve" smooth="yes"/>
      <point x="153" y="357"/>
      <point x="156" y="372"/>
      <point x="158" y="386" type="curve" smooth="yes"/>
      <point x="160" y="400"/>
      <point x="162" y="415"/>
      <point x="164" y="430" type="curve" smooth="yes"/>
    </contour>
    <contour>
      <point x="11" y="46"/>
      <point x="12" y="38"/>
      <point x="14" y="30" type="curve" smooth="yes"/>
      <point x="16" y="22"/>
      <point x="19" y="16"/>
      <point x="24" y="10" type="curve" smooth="yes"/>
      <point x="29" y="4"/>
      <point x="35" y="0"/>
      <point x="42" y="-3" type="curve" smooth="yes"/>
      <point x="49" y="-6"/>
      <point x="57" y="-8"/>
      <point x="66" y="-8" type="curve" smooth="yes"/>
      <point x="75" y="-8"/>
      <point x="83" y="-6"/>
      <point x="91" y="-3" type="curve" smooth="yes"/>
      <point x="99" y="0"/>
      <point x="107" y="4"/>
      <point x="113" y="10" type="curve" smooth="yes"/>
      <point x="119" y="16"/>
      <point x="125" y="22"/>
      <point x="129" y="30" type="curve" smooth="yes"/>
      <point x="133" y="38"/>
      <point x="136" y="46"/>
      <point x="137" y="55" type="curve" smooth="yes"/>
      <point x="138" y="64"/>
      <point x="137" y="72"/>
      <point x="135" y="80" type="curve" smooth="yes"/>
      <point x="133" y="88"/>
      <point x="129" y="93"/>
      <point x="124" y="99" type="curve" smooth="yes"/>
      <point x="119" y="105"/>
      <point x="113" y="110"/>
      <point x="106" y="113" type="curve" smooth="yes"/>
      <point x="99" y="116"/>
      <point x="91" y="118"/>
      <point x="82" y="118" type="curve" smooth="yes"/>
      <point x="73" y="118"/>
      <point x="65" y="116"/>
      <point x="57" y="113" type="curve" smooth="yes"/>
      <point x="49" y="110"/>
      <point x="41" y="105"/>
      <point x="35" y="99" type="curve" smooth="yes"/>
      <point x="29" y="93"/>
      <point x="24" y="88"/>
      <point x="20" y="80" type="curve" smooth="yes"/>
      <point x="16" y="72"/>
      <point x="13" y="64"/>
      <point x="12" y="55" type="curve" smooth="yes"/>
    </contour>
  </outline>
</glyph>
<glyph name="dollar" format="1">
  <advance width="516"/>
  <unicode hex="0024"/>
  <note>
    dollar
  </note>
  <outline>
    <contour>
      <point x="147" y="-119" type="line"/>
      <point x="180" y="-119" type="line" smooth="yes"/>
      <point x="187" y="-119"/>
      <point x="193" y="-117"/>
      <point x="198" y="-112" type="curve" smooth="yes"/>
      <point x="203" y="-107"/>
      <point x="207" y="-101"/>
      <point x="208" y="-95" type="curve" smooth="yes"/>
      <point x="225" y="-7" type="line"/>
      <point x="261" y="-5"/>
      <point x="294" y="3"/>
      <point x="323" y="15" type="curve" smooth="yes"/>
      <point x="352" y="27"/>
      <point x="377" y="44"/>
      <point x="399" y="64" type="curve" smooth="yes"/>
      <point x="421" y="84"/>
      <point x="438" y="107"/>
      <point x="451" y="133" type="curve" smooth="yes"/>
      <point x="464" y="159"/>
      <point x="473" y="188"/>
      <point x="477" y="218" type="curve" smooth="yes"/>
      <point x="481" y="249"/>
      <point x="478" y="274"/>
      <point x="469" y="294" type="curve" smooth="yes"/>
      <point x="460" y="314"/>
      <point x="447" y="332"/>
      <point x="430" y="346" type="curve" smooth="yes"/>
      <point x="413" y="360"/>
      <point x="393" y="370"/>
      <point x="371" y="379" type="curve" smooth="yes"/>
      <point x="349" y="388"/>
      <point x="326" y="396"/>
      <point x="303" y="403" type="curve"/>
      <point x="349" y="645" type="line"/>
      <point x="365" y="643"/>
      <point x="379" y="639"/>
      <point x="391" y="633" type="curve" smooth="yes"/>
      <point x="403" y="627"/>
      <point x="414" y="623"/>
      <point x="423" y="617" type="curve"/>
      <point x="432" y="612"/>
      <point x="440" y="606"/>
      <point x="446" y="602" type="curve" smooth="yes"/>
      <point x="452" y="598"/>
      <point x="457" y="596"/>
      <point x="462" y="596" type="curve" smooth="yes"/>
      <point x="471" y="596"/>
      <point x="479" y="601"/>
      <point x="487" y="611" type="curve" smooth="yes"/>
      <point x="513" y="644" type="line"/>
      <point x="495" y="663"/>
      <point x="475" y="680"/>
      <point x="451" y="694" type="curve" smooth="yes"/>
      <point x="427" y="708"/>
      <point x="397" y="716"/>
      <point x="363" y="720" type="curve"/>
      <point x="383" y="820" type="line"/>
      <point x="350" y="820" type="line" smooth="yes"/>
      <point x="343" y="820"/>
      <point x="336" y="817"/>
      <point x="331" y="812" type="curve" smooth="yes"/>
      <point x="326" y="807"/>
      <point x="323" y="801"/>
      <point x="322" y="795" type="curve" smooth="yes"/>
      <point x="308" y="723" type="line"/>
      <point x="273" y="722"/>
      <point x="241" y="716"/>
      <point x="213" y="704" type="curve" smooth="yes"/>
      <point x="185" y="692"/>
      <point x="161" y="678"/>
      <point x="141" y="660" type="curve" smooth="yes"/>
      <point x="121" y="642"/>
      <point x="104" y="621"/>
      <point x="92" y="598" type="curve" smooth="yes"/>
      <point x="80" y="575"/>
      <point x="72" y="550"/>
      <point x="69" y="526" type="curve" smooth="yes"/>
      <point x="65" y="494"/>
      <point x="67" y="468"/>
      <point x="75" y="446" type="curve" smooth="yes"/>
      <point x="83" y="424"/>
      <point x="95" y="406"/>
      <point x="111" y="392" type="curve" smooth="yes"/>
      <point x="127" y="378"/>
      <point x="147" y="367"/>
      <point x="168" y="358" type="curve" smooth="yes"/>
      <point x="189" y="349"/>
      <point x="212" y="341"/>
      <point x="234" y="334" type="curve"/>
      <point x="182" y="68" type="line"/>
      <point x="160" y="71"/>
      <point x="141" y="76"/>
      <point x="126" y="84" type="curve" smooth="yes"/>
      <point x="111" y="92"/>
      <point x="98" y="100"/>
      <point x="87" y="108" type="curve" smooth="yes"/>
      <point x="76" y="116"/>
      <point x="67" y="123"/>
      <point x="60" y="129" type="curve" smooth="yes"/>
      <point x="53" y="135"/>
      <point x="46" y="139"/>
      <point x="40" y="139" type="curve" smooth="yes"/>
      <point x="35" y="139"/>
      <point x="31" y="137"/>
      <point x="26" y="135" type="curve" smooth="yes"/>
      <point x="21" y="133"/>
      <point x="18" y="130"/>
      <point x="15" y="126" type="curve" smooth="yes"/>
      <point x="-16" y="85" type="line"/>
      <point x="5" y="60"/>
      <point x="31" y="40"/>
      <point x="62" y="24" type="curve" smooth="yes"/>
      <point x="93" y="8"/>
      <point x="128" y="-2"/>
      <point x="168" y="-6" type="curve"/>
    </contour>
    <contour>
      <point x="388" y="185"/>
      <point x="383" y="168"/>
      <point x="375" y="152" type="curve" smooth="yes"/>
      <point x="367" y="136"/>
      <point x="357" y="124"/>
      <point x="344" y="112" type="curve" smooth="yes"/>
      <point x="331" y="100"/>
      <point x="316" y="91"/>
      <point x="298" y="83" type="curve" smooth="yes"/>
      <point x="280" y="75"/>
      <point x="261" y="70"/>
      <point x="239" y="68" type="curve"/>
      <point x="286" y="318" type="line"/>
      <point x="302" y="313"/>
      <point x="316" y="306"/>
      <point x="330" y="300" type="curve" smooth="yes"/>
      <point x="344" y="294"/>
      <point x="355" y="287"/>
      <point x="365" y="278" type="curve" smooth="yes"/>
      <point x="375" y="269"/>
      <point x="382" y="258"/>
      <point x="387" y="246" type="curve" smooth="yes"/>
      <point x="392" y="234"/>
      <point x="392" y="221"/>
      <point x="390" y="204" type="curve" smooth="yes"/>
    </contour>
    <contour>
      <point x="156" y="549"/>
      <point x="159" y="563"/>
      <point x="166" y="575" type="curve" smooth="yes"/>
      <point x="173" y="587"/>
      <point x="182" y="598"/>
      <point x="193" y="608" type="curve" smooth="yes"/>
      <point x="204" y="618"/>
      <point x="218" y="626"/>
      <point x="235" y="633" type="curve" smooth="yes"/>
      <point x="252" y="640"/>
      <point x="271" y="644"/>
      <point x="293" y="646" type="curve"/>
      <point x="250" y="421" type="line"/>
      <point x="235" y="426"/>
      <point x="222" y="432"/>
      <point x="209" y="439" type="curve" smooth="yes"/>
      <point x="196" y="446"/>
      <point x="186" y="453"/>
      <point x="177" y="462" type="curve" smooth="yes"/>
      <point x="168" y="471"/>
      <point x="161" y="482"/>
      <point x="157" y="494" type="curve" smooth="yes"/>
      <point x="153" y="506"/>
      <point x="152" y="519"/>
      <point x="154" y="535" type="curve" smooth="yes"/>
    </contour>
  </outline>
</glyph>
<glyph name="percent" format="1">
  <advance width="747"/>
  <unicode hex="0025"/>
  <note>
    percent
  </note>
  <outline>
    <contour>
      <point x="363" y="573"/>
      <point x="361" y="598"/>
      <point x="356" y="620" type="curve" smooth="yes"/>
      <point x="351" y="642"/>
      <point x="341" y="661"/>
      <point x="329" y="676" type="curve" smooth="yes"/>
      <point x="317" y="691"/>
      <point x="302" y="704"/>
      <point x="283" y="712" type="curve" smooth="yes"/>
      <point x="264" y="720"/>
      <point x="244" y="724"/>
      <point x="222" y="724" type="curve" smooth="yes"/>
      <point x="199" y="724"/>
      <point x="178" y="720"/>
      <point x="158" y="712" type="curve" smooth="yes"/>
      <point x="138" y="704"/>
      <point x="119" y="691"/>
      <point x="103" y="676" type="curve" smooth="yes"/>
      <point x="87" y="661"/>
      <point x="74" y="642"/>
      <point x="63" y="620" type="curve" smooth="yes"/>
      <point x="52" y="598"/>
      <point x="45" y="573"/>
      <point x="41" y="544" type="curve" smooth="yes"/>
      <point x="38" y="516"/>
      <point x="39" y="490"/>
      <point x="44" y="468" type="curve" smooth="yes"/>
      <point x="49" y="446"/>
      <point x="59" y="427"/>
      <point x="71" y="412" type="curve" smooth="yes"/>
      <point x="83" y="397"/>
      <point x="99" y="386"/>
      <point x="117" y="378" type="curve" smooth="yes"/>
      <point x="135" y="370"/>
      <point x="155" y="366"/>
      <point x="178" y="366" type="curve" smooth="yes"/>
      <point x="199" y="366"/>
      <point x="220" y="370"/>
      <point x="240" y="378" type="curve" smooth="yes"/>
      <point x="260" y="386"/>
      <point x="279" y="397"/>
      <point x="295" y="412" type="curve" smooth="yes"/>
      <point x="311" y="427"/>
      <point x="325" y="446"/>
      <point x="336" y="468" type="curve" smooth="yes"/>
      <point x="347" y="490"/>
      <point x="356" y="516"/>
      <point x="359" y="544" type="curve" smooth="yes"/>
    </contour>
    <contour>
      <point x="286" y="522"/>
      <point x="282" y="503"/>
      <point x="275" y="488" type="curve" smooth="yes"/>
      <point x="268" y="473"/>
      <point x="261" y="461"/>
      <point x="252" y="451" type="curve" smooth="yes"/>
      <point x="243" y="441"/>
      <point x="232" y="435"/>
      <point x="221" y="431" type="curve" smooth="yes"/>
      <point x="210" y="427"/>
      <point x="197" y="424"/>
      <point x="185" y="424" type="curve" smooth="yes"/>
      <point x="173" y="424"/>
      <point x="161" y="427"/>
      <point x="151" y="431" type="curve" smooth="yes"/>
      <point x="141" y="435"/>
      <point x="132" y="441"/>
      <point x="125" y="451" type="curve" smooth="yes"/>
      <point x="118" y="461"/>
      <point x="114" y="473"/>
      <point x="111" y="488" type="curve" smooth="yes"/>
      <point x="108" y="503"/>
      <point x="108" y="522"/>
      <point x="111" y="544" type="curve" smooth="yes"/>
      <point x="114" y="566"/>
      <point x="119" y="585"/>
      <point x="125" y="600" type="curve" smooth="yes"/>
      <point x="131" y="615"/>
      <point x="139" y="627"/>
      <point x="148" y="637" type="curve" smooth="yes"/>
      <point x="157" y="647"/>
      <point x="168" y="654"/>
      <point x="179" y="658" type="curve" smooth="yes"/>
      <point x="190" y="662"/>
      <point x="203" y="665"/>
      <point x="215" y="665" type="curve" smooth="yes"/>
      <point x="227" y="665"/>
      <point x="239" y="662"/>
      <point x="249" y="658" type="curve" smooth="yes"/>
      <point x="259" y="654"/>
      <point x="267" y="647"/>
      <point x="274" y="637" type="curve" smooth="yes"/>
      <point x="281" y="627"/>
      <point x="286" y="614"/>
      <point x="289" y="599" type="curve" smooth="yes"/>
      <point x="292" y="584"/>
      <point x="292" y="566"/>
      <point x="289" y="544" type="curve" smooth="yes"/>
    </contour>
    <contour>
      <point x="22" y="0" type="line"/>
      <point x="88" y="0" type="line" smooth="yes"/>
      <point x="94" y="0"/>
      <point x="99" y="1"/>
      <point x="104" y="4" type="curve" smooth="yes"/>
      <point x="109" y="7"/>
      <point x="114" y="10"/>
      <point x="118" y="14" type="curve"/>
      <point x="727" y="716" type="line"/>
      <point x="663" y="716" type="line" smooth="yes"/>
      <point x="655" y="716"/>
      <point x="649" y="715"/>
      <point x="644" y="712" type="curve" smooth="yes"/>
      <point x="639" y="709"/>
      <point x="633" y="704"/>
      <point x="628" y="698" type="curve" smooth="yes"/>
    </contour>
    <contour>
      <point x="713" y="198"/>
      <point x="711" y="224"/>
      <point x="706" y="246" type="curve" smooth="yes"/>
      <point x="701" y="268"/>
      <point x="692" y="287"/>
      <point x="680" y="302" type="curve" smooth="yes"/>
      <point x="668" y="317"/>
      <point x="651" y="329"/>
      <point x="633" y="337" type="curve" smooth="yes"/>
      <point x="615" y="345"/>
      <point x="594" y="349"/>
      <point x="572" y="349" type="curve" smooth="yes"/>
      <point x="549" y="349"/>
      <point x="528" y="345"/>
      <point x="508" y="337" type="curve" smooth="yes"/>
      <point x="488" y="329"/>
      <point x="470" y="317"/>
      <point x="454" y="302" type="curve" smooth="yes"/>
      <point x="438" y="287"/>
      <point x="424" y="268"/>
      <point x="413" y="246" type="curve" smooth="yes"/>
      <point x="402" y="224"/>
      <point x="396" y="198"/>
      <point x="392" y="169" type="curve" smooth="yes"/>
      <point x="389" y="141"/>
      <point x="390" y="116"/>
      <point x="395" y="94" type="curve" smooth="yes"/>
      <point x="400" y="72"/>
      <point x="409" y="53"/>
      <point x="421" y="38" type="curve" smooth="yes"/>
      <point x="433" y="23"/>
      <point x="449" y="12"/>
      <point x="467" y="4" type="curve" smooth="yes"/>
      <point x="485" y="-4"/>
      <point x="505" y="-8"/>
      <point x="528" y="-8" type="curve" smooth="yes"/>
      <point x="549" y="-8"/>
      <point x="570" y="-4"/>
      <point x="590" y="4" type="curve" smooth="yes"/>
      <point x="610" y="12"/>
      <point x="629" y="23"/>
      <point x="645" y="38" type="curve" smooth="yes"/>
      <point x="661" y="53"/>
      <point x="676" y="72"/>
      <point x="687" y="94" type="curve" smooth="yes"/>
      <point x="698" y="116"/>
      <point x="706" y="141"/>
      <point x="709" y="169" type="curve" smooth="yes"/>
    </contour>
    <contour>
      <point x="637" y="147"/>
      <point x="633" y="129"/>
      <point x="626" y="114" type="curve" smooth="yes"/>
      <point x="619" y="99"/>
      <point x="611" y="87"/>
      <point x="602" y="77" type="curve" smooth="yes"/>
      <point x="593" y="67"/>
      <point x="582" y="61"/>
      <point x="571" y="57" type="curve" smooth="yes"/>
      <point x="560" y="53"/>
      <point x="548" y="50"/>
      <point x="536" y="50" type="curve" smooth="yes"/>
      <point x="524" y="50"/>
      <point x="512" y="53"/>
      <point x="502" y="57" type="curve" smooth="yes"/>
      <point x="492" y="61"/>
      <point x="483" y="67"/>
      <point x="476" y="77" type="curve" smooth="yes"/>
      <point x="469" y="87"/>
      <point x="465" y="99"/>
      <point x="462" y="114" type="curve" smooth="yes"/>
      <point x="459" y="129"/>
      <point x="459" y="147"/>
      <point x="462" y="169" type="curve" smooth="yes"/>
      <point x="465" y="191"/>
      <point x="469" y="209"/>
      <point x="475" y="225" type="curve" smooth="yes"/>
      <point x="481" y="241"/>
      <point x="490" y="253"/>
      <point x="499" y="263" type="curve" smooth="yes"/>
      <point x="508" y="273"/>
      <point x="519" y="280"/>
      <point x="530" y="284" type="curve" smooth="yes"/>
      <point x="541" y="288"/>
      <point x="553" y="290"/>
      <point x="565" y="290" type="curve" smooth="yes"/>
      <point x="577" y="290"/>
      <point x="589" y="288"/>
      <point x="599" y="284" type="curve" smooth="yes"/>
      <point x="609" y="280"/>
      <point x="618" y="273"/>
      <point x="625" y="263" type="curve" smooth="yes"/>
      <point x="632" y="253"/>
      <point x="637" y="241"/>
      <point x="640" y="225" type="curve" smooth="yes"/>
      <point x="643" y="209"/>
      <point x="643" y="191"/>
      <point x="640" y="169" type="curve" smooth="yes"/>
    </contour>
  </outline>
</glyph>
<glyph name="zero" format="1">
  <advance width="597"/>
  <unicode hex="0030"/>
  <note>
    zero
  </note>
  <outline>
    <contour>
      <point x="565" y="421"/>
      <point x="565" y="475"/>
      <point x="557" y="521" type="curve" smooth="yes"/>
      <point x="549" y="567"/>
      <point x="535" y="605"/>
      <point x="515" y="635" type="curve" smooth="yes"/>
      <point x="495" y="665"/>
      <point x="471" y="687"/>
      <point x="441" y="702" type="curve" smooth="yes"/>
      <point x="411" y="717"/>
      <point x="377" y="724"/>
      <point x="341" y="724" type="curve" smooth="yes"/>
      <point x="304" y="724"/>
      <point x="269" y="717"/>
      <point x="236" y="702" type="curve" smooth="yes"/>
      <point x="203" y="687"/>
      <point x="173" y="665"/>
      <point x="146" y="635" type="curve" smooth="yes"/>
      <point x="119" y="605"/>
      <point x="96" y="567"/>
      <point x="77" y="521" type="curve" smooth="yes"/>
      <point x="58" y="475"/>
      <point x="45" y="421"/>
      <point x="37" y="358" type="curve" smooth="yes"/>
      <point x="29" y="295"/>
      <point x="29" y="241"/>
      <point x="37" y="195" type="curve" smooth="yes"/>
      <point x="45" y="149"/>
      <point x="58" y="111"/>
      <point x="78" y="81" type="curve" smooth="yes"/>
      <point x="98" y="51"/>
      <point x="122" y="29"/>
      <point x="152" y="14" type="curve" smooth="yes"/>
      <point x="182" y="-1"/>
      <point x="214" y="-8"/>
      <point x="251" y="-8" type="curve" smooth="yes"/>
      <point x="287" y="-8"/>
      <point x="322" y="-1"/>
      <point x="356" y="14" type="curve" smooth="yes"/>
      <point x="390" y="29"/>
      <point x="420" y="51"/>
      <point x="447" y="81" type="curve" smooth="yes"/>
      <point x="474" y="111"/>
      <point x="498" y="149"/>
      <point x="517" y="195" type="curve" smooth="yes"/>
      <point x="536" y="241"/>
      <point x="549" y="295"/>
      <point x="557" y="358" type="curve" smooth="yes"/>
    </contour>
    <contour>
      <point x="457" y="303"/>
      <point x="448" y="257"/>
      <point x="434" y="220" type="curve" smooth="yes"/>
      <point x="420" y="183"/>
      <point x="404" y="154"/>
      <point x="386" y="131" type="curve" smooth="yes"/>
      <point x="368" y="108"/>
      <point x="348" y="92"/>
      <point x="326" y="82" type="curve" smooth="yes"/>
      <point x="304" y="72"/>
      <point x="283" y="67"/>
      <point x="261" y="67" type="curve" smooth="yes"/>
      <point x="239" y="67"/>
      <point x="218" y="72"/>
      <point x="199" y="82" type="curve" smooth="yes"/>
      <point x="180" y="92"/>
      <point x="164" y="108"/>
      <point x="151" y="131" type="curve" smooth="yes"/>
      <point x="138" y="154"/>
      <point x="131" y="183"/>
      <point x="126" y="220" type="curve" smooth="yes"/>
      <point x="121" y="257"/>
      <point x="122" y="303"/>
      <point x="129" y="358" type="curve" smooth="yes"/>
      <point x="136" y="413"/>
      <point x="145" y="459"/>
      <point x="159" y="496" type="curve" smooth="yes"/>
      <point x="173" y="533"/>
      <point x="189" y="562"/>
      <point x="207" y="585" type="curve" smooth="yes"/>
      <point x="225" y="608"/>
      <point x="245" y="624"/>
      <point x="267" y="634" type="curve" smooth="yes"/>
      <point x="289" y="644"/>
      <point x="310" y="649"/>
      <point x="332" y="649" type="curve" smooth="yes"/>
      <point x="354" y="649"/>
      <point x="375" y="644"/>
      <point x="394" y="634" type="curve" smooth="yes"/>
      <point x="413" y="624"/>
      <point x="428" y="608"/>
      <point x="441" y="585" type="curve" smooth="yes"/>
      <point x="454" y="562"/>
      <point x="462" y="533"/>
      <point x="467" y="496" type="curve" smooth="yes"/>
      <point x="472" y="459"/>
      <point x="471" y="413"/>
      <point x="464" y="358" type="curve" smooth="yes"/>
    </contour>
  </outline>
</glyph>
<glyph name="three" format="1">
  <advance width="536"/>
  <unicode hex="0033"/>
  <note>
    three
  </note>
  <outline>
    <contour>
      <point x="287" y="724"/>
      <point x="259" y="720"/>
      <point x="231" y="711" type="curve" smooth="yes"/>
      <point x="203" y="702"/>
      <point x="179" y="689"/>
      <point x="156" y="672" type="curve" smooth="yes"/>
      <point x="133" y="655"/>
      <point x="113" y="634"/>
      <point x="97" y="609" type="curve" smooth="yes"/>
      <point x="81" y="584"/>
      <point x="69" y="555"/>
      <point x="60" y="522" type="curve"/>
      <point x="105" y="514" type="line"/>
      <point x="111" y="514" type="line"/>
      <point x="117" y="514" type="line" smooth="yes"/>
      <point x="125" y="514"/>
      <point x="132" y="516"/>
      <point x="138" y="520" type="curve" smooth="yes"/>
      <point x="144" y="524"/>
      <point x="148" y="531"/>
      <point x="152" y="541" type="curve" smooth="yes"/>
      <point x="158" y="556"/>
      <point x="166" y="571"/>
      <point x="176" y="584" type="curve" smooth="yes"/>
      <point x="186" y="597"/>
      <point x="197" y="608"/>
      <point x="210" y="618" type="curve"/>
      <point x="223" y="627"/>
      <point x="237" y="635"/>
      <point x="253" y="640" type="curve" smooth="yes"/>
      <point x="269" y="645"/>
      <point x="286" y="648"/>
      <point x="304" y="648" type="curve" smooth="yes"/>
      <point x="322" y="648"/>
      <point x="338" y="645"/>
      <point x="353" y="640" type="curve" smooth="yes"/>
      <point x="368" y="635"/>
      <point x="381" y="628"/>
      <point x="391" y="618" type="curve" smooth="yes"/>
      <point x="401" y="608"/>
      <point x="408" y="595"/>
      <point x="413" y="580" type="curve" smooth="yes"/>
      <point x="418" y="565"/>
      <point x="419" y="547"/>
      <point x="416" y="526" type="curve"/>
      <point x="414" y="507"/>
      <point x="409" y="490"/>
      <point x="401" y="475" type="curve" smooth="yes"/>
      <point x="393" y="460"/>
      <point x="381" y="447"/>
      <point x="366" y="436" type="curve" smooth="yes"/>
      <point x="351" y="425"/>
      <point x="332" y="416"/>
      <point x="310" y="410" type="curve" smooth="yes"/>
      <point x="288" y="404"/>
      <point x="261" y="400"/>
      <point x="231" y="400" type="curve"/>
      <point x="223" y="335" type="line"/>
      <point x="260" y="335"/>
      <point x="291" y="332"/>
      <point x="314" y="325" type="curve" smooth="yes"/>
      <point x="337" y="318"/>
      <point x="354" y="310"/>
      <point x="366" y="298" type="curve" smooth="yes"/>
      <point x="378" y="286"/>
      <point x="386" y="272"/>
      <point x="389" y="256" type="curve" smooth="yes"/>
      <point x="392" y="240"/>
      <point x="392" y="222"/>
      <point x="390" y="203" type="curve" smooth="yes"/>
      <point x="388" y="187"/>
      <point x="383" y="172"/>
      <point x="375" y="156" type="curve" smooth="yes"/>
      <point x="367" y="140"/>
      <point x="356" y="125"/>
      <point x="342" y="112" type="curve" smooth="yes"/>
      <point x="328" y="99"/>
      <point x="311" y="88"/>
      <point x="291" y="80" type="curve" smooth="yes"/>
      <point x="271" y="72"/>
      <point x="248" y="68"/>
      <point x="223" y="68" type="curve" smooth="yes"/>
      <point x="198" y="68"/>
      <point x="178" y="72"/>
      <point x="162" y="79" type="curve" smooth="yes"/>
      <point x="146" y="86"/>
      <point x="133" y="95"/>
      <point x="123" y="106" type="curve" smooth="yes"/>
      <point x="113" y="117"/>
      <point x="105" y="128"/>
      <point x="100" y="140" type="curve" smooth="yes"/>
      <point x="95" y="152"/>
      <point x="90" y="163"/>
      <point x="87" y="173" type="curve"/>
      <point x="87" y="175"/>
      <point x="86" y="176"/>
      <point x="86" y="178" type="curve" smooth="yes"/>
      <point x="86" y="179"/>
      <point x="85" y="181"/>
      <point x="84" y="182" type="curve"/>
      <point x="82" y="188"/>
      <point x="79" y="192"/>
      <point x="74" y="195" type="curve" smooth="yes"/>
      <point x="69" y="198"/>
      <point x="64" y="199"/>
      <point x="57" y="199" type="curve" smooth="yes"/>
      <point x="50" y="199"/>
      <point x="42" y="198"/>
      <point x="35" y="195" type="curve" smooth="yes"/>
      <point x="-4" y="179" type="line"/>
      <point x="1" y="152"/>
      <point x="8" y="128"/>
      <point x="17" y="105" type="curve" smooth="yes"/>
      <point x="26" y="82"/>
      <point x="39" y="62"/>
      <point x="56" y="45" type="curve" smooth="yes"/>
      <point x="73" y="28"/>
      <point x="93" y="16"/>
      <point x="119" y="6" type="curve" smooth="yes"/>
      <point x="145" y="-4"/>
      <point x="177" y="-8"/>
      <point x="215" y="-8" type="curve" smooth="yes"/>
      <point x="248" y="-8"/>
      <point x="280" y="-3"/>
      <point x="310" y="7" type="curve" smooth="yes"/>
      <point x="340" y="17"/>
      <point x="367" y="31"/>
      <point x="391" y="49" type="curve" smooth="yes"/>
      <point x="415" y="67"/>
      <point x="434" y="90"/>
      <point x="450" y="116" type="curve" smooth="yes"/>
      <point x="466" y="142"/>
      <point x="476" y="172"/>
      <point x="480" y="205" type="curve" smooth="yes"/>
      <point x="485" y="249"/>
      <point x="478" y="285"/>
      <point x="458" y="314" type="curve" smooth="yes"/>
      <point x="438" y="343"/>
      <point x="405" y="364"/>
      <point x="360" y="376" type="curve"/>
      <point x="380" y="382"/>
      <point x="399" y="390"/>
      <point x="415" y="399" type="curve" smooth="yes"/>
      <point x="431" y="408"/>
      <point x="446" y="419"/>
      <point x="458" y="433" type="curve" smooth="yes"/>
      <point x="470" y="447"/>
      <point x="481" y="462"/>
      <point x="489" y="480" type="curve" smooth="yes"/>
      <point x="497" y="498"/>
      <point x="502" y="518"/>
      <point x="505" y="541" type="curve" smooth="yes"/>
      <point x="508" y="569"/>
      <point x="507" y="593"/>
      <point x="499" y="616" type="curve" smooth="yes"/>
      <point x="491" y="639"/>
      <point x="480" y="658"/>
      <point x="463" y="674" type="curve" smooth="yes"/>
      <point x="446" y="690"/>
      <point x="426" y="702"/>
      <point x="401" y="711" type="curve" smooth="yes"/>
      <point x="376" y="720"/>
      <point x="348" y="724"/>
      <point x="318" y="724" type="curve" smooth="yes"/>
    </contour>
  </outline>
</glyph>
<glyph name="nine" format="1">
  <advance width="520"/>
  <unicode hex="0039"/>
  <note>
    nine
  </note>
  <outline>
    <contour>
      <point x="236" y="294"/>
      <point x="261" y="298"/>
      <point x="285" y="306" type="curve" smooth="yes"/>
      <point x="309" y="314"/>
      <point x="331" y="324"/>
      <point x="351" y="339" type="curve"/>
      <point x="344" y="330"/>
      <point x="337" y="322"/>
      <point x="330" y="313" type="curve" smooth="yes"/>
      <point x="323" y="304"/>
      <point x="315" y="296"/>
      <point x="306" y="286" type="curve" smooth="yes"/>
      <point x="53" y="0" type="line"/>
      <point x="135" y="0" type="line" smooth="yes"/>
      <point x="145" y="0"/>
      <point x="155" y="2"/>
      <point x="163" y="6" type="curve" smooth="yes"/>
      <point x="171" y="10"/>
      <point x="178" y="15"/>
      <point x="183" y="21" type="curve" smooth="yes"/>
      <point x="389" y="273" type="line" smooth="yes"/>
      <point x="404" y="292"/>
      <point x="418" y="309"/>
      <point x="430" y="327" type="curve" smooth="yes"/>
      <point x="442" y="345"/>
      <point x="453" y="362"/>
      <point x="463" y="380" type="curve" smooth="yes"/>
      <point x="473" y="398"/>
      <point x="480" y="415"/>
      <point x="486" y="434" type="curve" smooth="yes"/>
      <point x="492" y="452"/>
      <point x="496" y="472"/>
      <point x="499" y="493" type="curve" smooth="yes"/>
      <point x="503" y="527"/>
      <point x="502" y="559"/>
      <point x="495" y="587" type="curve" smooth="yes"/>
      <point x="488" y="615"/>
      <point x="475" y="640"/>
      <point x="457" y="660" type="curve" smooth="yes"/>
      <point x="439" y="680"/>
      <point x="418" y="697"/>
      <point x="391" y="708" type="curve" smooth="yes"/>
      <point x="364" y="719"/>
      <point x="334" y="725"/>
      <point x="300" y="725" type="curve" smooth="yes"/>
      <point x="265" y="725"/>
      <point x="232" y="719"/>
      <point x="202" y="707" type="curve" smooth="yes"/>
      <point x="172" y="695"/>
      <point x="144" y="679"/>
      <point x="121" y="659" type="curve" smooth="yes"/>
      <point x="98" y="639"/>
      <point x="78" y="615"/>
      <point x="63" y="588" type="curve" smooth="yes"/>
      <point x="48" y="561"/>
      <point x="39" y="531"/>
      <point x="35" y="500" type="curve" smooth="yes"/>
      <point x="31" y="467"/>
      <point x="33" y="438"/>
      <point x="41" y="412" type="curve" smooth="yes"/>
      <point x="49" y="386"/>
      <point x="60" y="365"/>
      <point x="76" y="347" type="curve" smooth="yes"/>
      <point x="92" y="329"/>
      <point x="112" y="317"/>
      <point x="135" y="308" type="curve" smooth="yes"/>
      <point x="158" y="299"/>
      <point x="183" y="294"/>
      <point x="210" y="294" type="curve" smooth="yes"/>
    </contour>
    <contour>
      <point x="413" y="486"/>
      <point x="408" y="468"/>
      <point x="399" y="451" type="curve" smooth="yes"/>
      <point x="390" y="434"/>
      <point x="378" y="419"/>
      <point x="364" y="406" type="curve" smooth="yes"/>
      <point x="350" y="393"/>
      <point x="332" y="382"/>
      <point x="313" y="374" type="curve" smooth="yes"/>
      <point x="294" y="366"/>
      <point x="272" y="363"/>
      <point x="248" y="363" type="curve" smooth="yes"/>
      <point x="226" y="363"/>
      <point x="208" y="366"/>
      <point x="191" y="372" type="curve" smooth="yes"/>
      <point x="174" y="378"/>
      <point x="161" y="388"/>
      <point x="150" y="400" type="curve" smooth="yes"/>
      <point x="139" y="412"/>
      <point x="131" y="427"/>
      <point x="127" y="445" type="curve" smooth="yes"/>
      <point x="123" y="463"/>
      <point x="122" y="483"/>
      <point x="125" y="506" type="curve" smooth="yes"/>
      <point x="128" y="527"/>
      <point x="134" y="546"/>
      <point x="143" y="564" type="curve" smooth="yes"/>
      <point x="152" y="582"/>
      <point x="164" y="597"/>
      <point x="178" y="610" type="curve" smooth="yes"/>
      <point x="192" y="623"/>
      <point x="209" y="632"/>
      <point x="228" y="639" type="curve" smooth="yes"/>
      <point x="247" y="646"/>
      <point x="268" y="650"/>
      <point x="290" y="650" type="curve" smooth="yes"/>
      <point x="311" y="650"/>
      <point x="329" y="647"/>
      <point x="346" y="640" type="curve" smooth="yes"/>
      <point x="363" y="633"/>
      <point x="377" y="624"/>
      <point x="388" y="611" type="curve" smooth="yes"/>
      <point x="399" y="598"/>
      <point x="407" y="582"/>
      <point x="412" y="564" type="curve" smooth="yes"/>
      <point x="417" y="546"/>
      <point x="418" y="526"/>
      <point x="415" y="504" type="curve" smooth="yes"/>
    </contour>
  </outline>
</glyph>
<glyph name="colon" format="1">
  <advance width="239"/>
  <unicode hex="003A"/>
  <note>
    colon
  </note>
  <outline>
    <contour>
      <point x="29" y="46"/>
      <point x="30" y="38"/>
      <point x="32" y="30" type="curve" smooth="yes"/>
      <point x="34" y="22"/>
      <point x="37" y="16"/>
      <point x="42" y="10" type="curve" smooth="yes"/>
      <point x="47" y="4"/>
      <point x="53" y="0"/>
      <point x="60" y="-3" type="curve" smooth="yes"/>
      <point x="67" y="-6"/>
      <point x="75" y="-8"/>
      <point x="84" y="-8" type="curve" smooth="yes"/>
      <point x="93" y="-8"/>
      <point x="101" y="-6"/>
      <point x="109" y="-3" type="curve" smooth="yes"/>
      <point x="117" y="0"/>
      <point x="125" y="4"/>
      <point x="131" y="10" type="curve" smooth="yes"/>
      <point x="137" y="16"/>
      <point x="143" y="22"/>
      <point x="147" y="30" type="curve" smooth="yes"/>
      <point x="151" y="38"/>
      <point x="154" y="46"/>
      <point x="155" y="55" type="curve" smooth="yes"/>
      <point x="156" y="64"/>
      <point x="155" y="72"/>
      <point x="153" y="80" type="curve" smooth="yes"/>
      <point x="151" y="88"/>
      <point x="147" y="93"/>
      <point x="142" y="99" type="curve" smooth="yes"/>
      <point x="137" y="105"/>
      <point x="131" y="110"/>
      <point x="124" y="113" type="curve" smooth="yes"/>
      <point x="117" y="116"/>
      <point x="109" y="118"/>
      <point x="100" y="118" type="curve" smooth="yes"/>
      <point x="91" y="118"/>
      <point x="83" y="116"/>
      <point x="75" y="113" type="curve" smooth="yes"/>
      <point x="67" y="110"/>
      <point x="59" y="105"/>
      <point x="53" y="99" type="curve" smooth="yes"/>
      <point x="47" y="93"/>
      <point x="42" y="88"/>
      <point x="38" y="80" type="curve" smooth="yes"/>
      <point x="34" y="72"/>
      <point x="31" y="64"/>
      <point x="30" y="55" type="curve" smooth="yes"/>
    </contour>
    <contour>
      <point x="75" y="421"/>
      <point x="76" y="413"/>
      <point x="78" y="405" type="curve" smooth="yes"/>
      <point x="80" y="397"/>
      <point x="83" y="392"/>
      <point x="88" y="386" type="curve" smooth="yes"/>
      <point x="93" y="380"/>
      <point x="99" y="375"/>
      <point x="106" y="372" type="curve" smooth="yes"/>
      <point x="113" y="369"/>
      <point x="121" y="368"/>
      <point x="130" y="368" type="curve" smooth="yes"/>
      <point x="139" y="368"/>
      <point x="147" y="369"/>
      <point x="155" y="372" type="curve" smooth="yes"/>
      <point x="163" y="375"/>
      <point x="171" y="380"/>
      <point x="177" y="386" type="curve" smooth="yes"/>
      <point x="183" y="392"/>
      <point x="189" y="397"/>
      <point x="193" y="405" type="curve" smooth="yes"/>
      <point x="197" y="413"/>
      <point x="200" y="421"/>
      <point x="201" y="430" type="curve" smooth="yes"/>
      <point x="202" y="439"/>
      <point x="201" y="447"/>
      <point x="199" y="455" type="curve" smooth="yes"/>
      <point x="197" y="463"/>
      <point x="193" y="469"/>
      <point x="188" y="475" type="curve" smooth="yes"/>
      <point x="183" y="481"/>
      <point x="177" y="485"/>
      <point x="170" y="488" type="curve" smooth="yes"/>
      <point x="163" y="491"/>
      <point x="155" y="493"/>
      <point x="146" y="493" type="curve" smooth="yes"/>
      <point x="137" y="493"/>
      <point x="129" y="491"/>
      <point x="121" y="488" type="curve" smooth="yes"/>
      <point x="113" y="485"/>
      <point x="105" y="481"/>
      <point x="99" y="475" type="curve" smooth="yes"/>
      <point x="93" y="469"/>
      <point x="88" y="463"/>
      <point x="84" y="455" type="curve" smooth="yes"/>
      <point x="80" y="447"/>
      <point x="77" y="439"/>
      <point x="76" y="430" type="curve" smooth="yes"/>
    </contour>
  </outline>
</glyph>
<glyph name="greater" format="1">
  <advance width="455"/>
  <unicode hex="003E"/>
  <note>
    greater
  </note>
  <outline>
    <contour>
      <point x="22" y="117" type="line"/>
      <point x="433" y="318" type="line"/>
      <point x="437" y="355" type="line"/>
      <point x="75" y="556" type="line"/>
      <point x="68" y="492" type="line"/>
      <point x="67" y="486"/>
      <point x="68" y="481"/>
      <point x="70" y="477" type="curve" smooth="yes"/>
      <point x="72" y="473"/>
      <point x="76" y="469"/>
      <point x="82" y="466" type="curve" smooth="yes"/>
      <point x="293" y="352" type="line"/>
      <point x="299" y="348"/>
      <point x="305" y="345"/>
      <point x="312" y="343" type="curve" smooth="yes"/>
      <point x="319" y="341"/>
      <point x="327" y="338"/>
      <point x="335" y="336" type="curve"/>
      <point x="326" y="334"/>
      <point x="318" y="333"/>
      <point x="311" y="330" type="curve" smooth="yes"/>
      <point x="304" y="327"/>
      <point x="296" y="324"/>
      <point x="289" y="321" type="curve"/>
      <point x="51" y="207" type="line"/>
      <point x="44" y="204"/>
      <point x="38" y="200"/>
      <point x="35" y="196" type="curve" smooth="yes"/>
      <point x="32" y="192"/>
      <point x="30" y="186"/>
      <point x="29" y="181" type="curve"/>
    </contour>
  </outline>
</glyph>
<glyph name="D" format="1">
  <advance width="738"/>
  <unicode hex="0044"/>
  <note>
    D
  </note>
  <outline>
    <contour>
      <point x="732" y="465"/>
      <point x="710" y="552"/>
      <point x="653" y="618" type="curve" smooth="yes"/>
      <point x="596" y="684"/>
      <point x="516" y="716"/>
      <point x="410" y="716" type="curve" smooth="yes"/>
      <point x="79" y="716" type="line"/>
      <point x="74" y="674" type="line" smooth="yes"/>
      <point x="73" y="664"/>
      <point x="77" y="657"/>
      <point x="87" y="655" type="curve" smooth="yes"/>
      <point x="93" y="654"/>
      <point x="112" y="650"/>
      <point x="143" y="644" type="curve"/>
      <point x="72" y="73" type="line"/>
      <point x="14" y="62" type="line" smooth="yes"/>
      <point x="4" y="60"/>
      <point x="-2" y="53"/>
      <point x="-3" y="43" type="curve" smooth="yes"/>
      <point x="-8" y="0" type="line"/>
      <point x="322" y="0" type="line" smooth="yes"/>
      <point x="427" y="0"/>
      <point x="517" y="32"/>
      <point x="590" y="98" type="curve" smooth="yes"/>
      <point x="625" y="129"/>
      <point x="653" y="168"/>
      <point x="675" y="212" type="curve" smooth="yes"/>
      <point x="697" y="256"/>
      <point x="712" y="304"/>
      <point x="719" y="358" type="curve" smooth="yes"/>
    </contour>
    <contour>
      <point x="608" y="271"/>
      <point x="577" y="202"/>
      <point x="525" y="152" type="curve" smooth="yes"/>
      <point x="474" y="103"/>
      <point x="410" y="78"/>
      <point x="332" y="78" type="curve" smooth="yes"/>
      <point x="171" y="78" type="line"/>
      <point x="239" y="638" type="line"/>
      <point x="400" y="638" type="line" smooth="yes"/>
      <point x="478" y="638"/>
      <point x="537" y="613"/>
      <point x="576" y="564" type="curve" smooth="yes"/>
      <point x="595" y="540"/>
      <point x="608" y="511"/>
      <point x="616" y="476" type="curve" smooth="yes"/>
      <point x="624" y="441"/>
      <point x="624" y="402"/>
      <point x="619" y="358" type="curve" smooth="yes"/>
    </contour>
    <contour>
      <point x="382" y="358" type="move" name="center"/>
    </contour>
    <contour>
      <point x="339" y="0" type="move" name="bottom"/>
    </contour>
    <contour>
      <point x="425" y="716" type="move" name="top"/>
    </contour>
  </outline>
</glyph>
<glyph name="E" format="1">
  <advance width="574"/>
  <unicode hex="0045"/>
  <note>
    E
  </note>
  <outline>
    <contour>
      <point x="79" y="716" type="line"/>
      <point x="74" y="674" type="line" smooth="yes"/>
      <point x="73" y="664"/>
      <point x="77" y="657"/>
      <point x="87" y="655" type="curve" smooth="yes"/>
      <point x="93" y="654"/>
      <point x="112" y="650"/>
      <point x="143" y="644" type="curve"/>
      <point x="72" y="73" type="line"/>
      <point x="14" y="62" type="line" smooth="yes"/>
      <point x="4" y="60"/>
      <point x="-2" y="53"/>
      <point x="-3" y="43" type="curve" smooth="yes"/>
      <point x="-8" y="0" type="line"/>
      <point x="505" y="0" type="line"/>
      <point x="526" y="167" type="line"/>
      <point x="478" y="167" type="line" smooth="yes"/>
      <point x="466" y="167"/>
      <point x="458" y="161"/>
      <point x="454" y="150" type="curve" smooth="yes"/>
      <point x="453" y="147"/>
      <point x="448" y="123"/>
      <point x="439" y="79" type="curve"/>
      <point x="171" y="79" type="line"/>
      <point x="201" y="324" type="line"/>
      <point x="465" y="324" type="line"/>
      <point x="474" y="400" type="line"/>
      <point x="210" y="400" type="line"/>
      <point x="239" y="638" type="line"/>
      <point x="507" y="638" type="line"/>
      <point x="505" y="590"/>
      <point x="505" y="564"/>
      <point x="505" y="561" type="curve"/>
      <point x="506" y="549"/>
      <point x="512" y="544"/>
      <point x="524" y="544" type="curve" smooth="yes"/>
      <point x="572" y="544" type="line"/>
      <point x="593" y="716" type="line"/>
    </contour>
    <contour>
      <point x="487" y="10" type="move" name="ogonek"/>
    </contour>
    <contour>
      <point x="343" y="716" type="move" name="top"/>
    </contour>
    <contour>
      <point x="76" y="716" type="move" name="topleft"/>
    </contour>
    <contour>
      <point x="257" y="0" type="move" name="bottom"/>
    </contour>
  </outline>
</glyph>
<glyph name="H" format="1">
  <advance width="778"/>
  <unicode hex="0048"/>
  <note>
    H
  </note>
  <outline>
    <contour>
      <point x="781" y="655" type="line" smooth="yes"/>
      <point x="792" y="657"/>
      <point x="798" y="664"/>
      <point x="799" y="674" type="curve" smooth="yes"/>
      <point x="804" y="716" type="line"/>
      <point x="562" y="716" type="line"/>
      <point x="557" y="674" type="line" smooth="yes"/>
      <point x="556" y="664"/>
      <point x="559" y="658"/>
      <point x="567" y="656" type="curve" smooth="yes"/>
      <point x="575" y="654"/>
      <point x="595" y="650"/>
      <point x="626" y="644" type="curve"/>
      <point x="595" y="397" type="line"/>
      <point x="209" y="397" type="line"/>
      <point x="240" y="644" type="line"/>
      <point x="274" y="651"/>
      <point x="295" y="654"/>
      <point x="302" y="656" type="curve"/>
      <point x="309" y="657"/>
      <point x="314" y="664"/>
      <point x="315" y="674" type="curve" smooth="yes"/>
      <point x="320" y="716" type="line"/>
      <point x="79" y="716" type="line"/>
      <point x="74" y="674" type="line" smooth="yes"/>
      <point x="73" y="664"/>
      <point x="75" y="658"/>
      <point x="83" y="656" type="curve" smooth="yes"/>
      <point x="91" y="654"/>
      <point x="111" y="650"/>
      <point x="142" y="644" type="curve"/>
      <point x="72" y="73" type="line"/>
      <point x="14" y="62" type="line" smooth="yes"/>
      <point x="4" y="60"/>
      <point x="-3" y="53"/>
      <point x="-4" y="43" type="curve" smooth="yes"/>
      <point x="-9" y="0" type="line"/>
      <point x="232" y="0" type="line"/>
      <point x="238" y="43" type="line"/>
      <point x="239" y="53"/>
      <point x="216" y="63"/>
      <point x="169" y="73" type="curve"/>
      <point x="201" y="326" type="line"/>
      <point x="587" y="326" type="line"/>
      <point x="555" y="73" type="line"/>
      <point x="497" y="62" type="line" smooth="yes"/>
      <point x="487" y="60"/>
      <point x="481" y="53"/>
      <point x="480" y="43" type="curve"/>
      <point x="474" y="0" type="line"/>
      <point x="716" y="0" type="line"/>
      <point x="722" y="43" type="line"/>
      <point x="723" y="53"/>
      <point x="720" y="59"/>
      <point x="712" y="61" type="curve" smooth="yes"/>
      <point x="704" y="63"/>
      <point x="685" y="67"/>
      <point x="653" y="73" type="curve"/>
      <point x="723" y="644" type="line"/>
    </contour>
    <contour>
      <point x="359" y="0" type="move" name="bottom"/>
    </contour>
    <contour>
      <point x="445" y="716" type="move" name="top"/>
    </contour>
    <contour>
      <point x="76" y="716" type="move" name="topleft"/>
    </contour>
    <contour>
      <point x="402" y="358" type="move" name="center"/>
    </contour>
  </outline>
</glyph>
<glyph name="L" format="1">
  <advance width="546"/>
  <unicode hex="004C"/>
  <note>
    L
  </note>
  <outline>
    <contour>
      <point x="512" y="156" type="line"/>
      <point x="463" y="156" type="line" smooth="yes"/>
      <point x="453" y="156"/>
      <point x="443" y="149"/>
      <point x="440" y="139" type="curve"/>
      <point x="439" y="135"/>
      <point x="434" y="111"/>
      <point x="428" y="82" type="curve"/>
      <point x="170" y="82" type="line"/>
      <point x="239" y="644" type="line"/>
      <point x="240" y="644"/>
      <point x="288" y="653"/>
      <point x="297" y="655" type="curve" smooth="yes"/>
      <point x="306" y="657"/>
      <point x="313" y="664"/>
      <point x="314" y="673" type="curve" smooth="yes"/>
      <point x="315" y="682"/>
      <point x="320" y="716"/>
      <point x="320" y="716" type="curve" smooth="yes"/>
      <point x="248" y="716" type="line"/>
      <point x="247" y="716" type="line"/>
      <point x="151" y="716" type="line"/>
      <point x="78" y="716" type="line" smooth="yes"/>
      <point x="78" y="716"/>
      <point x="74" y="682"/>
      <point x="73" y="673" type="curve" smooth="yes"/>
      <point x="72" y="664"/>
      <point x="77" y="657"/>
      <point x="86" y="655" type="curve" smooth="yes"/>
      <point x="95" y="653"/>
      <point x="142" y="644"/>
      <point x="142" y="644" type="curve"/>
      <point x="72" y="73" type="line"/>
      <point x="72" y="73"/>
      <point x="22" y="64"/>
      <point x="13" y="62" type="curve" smooth="yes"/>
      <point x="4" y="60"/>
      <point x="-3" y="52"/>
      <point x="-4" y="43" type="curve" smooth="yes"/>
      <point x="-5" y="34"/>
      <point x="-10" y="0"/>
      <point x="-10" y="0" type="curve"/>
      <point x="63" y="0" type="line"/>
      <point x="461" y="0" type="line"/>
      <point x="470" y="0" type="line"/>
      <point x="492" y="0" type="line"/>
    </contour>
    <contour>
      <point x="243" y="0" type="move" name="bottom"/>
    </contour>
    <contour>
      <point x="329" y="716" type="move" name="top"/>
    </contour>
    <contour>
      <point x="582" y="716" type="move" name="topright"/>
    </contour>
    <contour>
      <point x="286" y="358" type="move" name="center"/>
    </contour>
  </outline>
</glyph>
<glyph name="O" format="1">
  <advance width="743"/>
  <unicode hex="004F"/>
  <note>
    O
  </note>
  <outline>
    <contour>
      <point x="732" y="412"/>
      <point x="728" y="461"/>
      <point x="717" y="506" type="curve" smooth="yes"/>
      <point x="706" y="551"/>
      <point x="686" y="589"/>
      <point x="659" y="622" type="curve" smooth="yes"/>
      <point x="632" y="654"/>
      <point x="598" y="680"/>
      <point x="557" y="698" type="curve" smooth="yes"/>
      <point x="516" y="716"/>
      <point x="469" y="724"/>
      <point x="416" y="724" type="curve" smooth="yes"/>
      <point x="363" y="724"/>
      <point x="315" y="716"/>
      <point x="269" y="698" type="curve" smooth="yes"/>
      <point x="223" y="680"/>
      <point x="183" y="654"/>
      <point x="148" y="622" type="curve" smooth="yes"/>
      <point x="113" y="590"/>
      <point x="85" y="551"/>
      <point x="62" y="506" type="curve" smooth="yes"/>
      <point x="39" y="461"/>
      <point x="25" y="412"/>
      <point x="18" y="358" type="curve" smooth="yes"/>
      <point x="11" y="304"/>
      <point x="14" y="255"/>
      <point x="25" y="210" type="curve" smooth="yes"/>
      <point x="36" y="165"/>
      <point x="56" y="126"/>
      <point x="83" y="94" type="curve" smooth="yes"/>
      <point x="110" y="62"/>
      <point x="145" y="37"/>
      <point x="186" y="19" type="curve" smooth="yes"/>
      <point x="227" y="1"/>
      <point x="273" y="-8"/>
      <point x="326" y="-8" type="curve" smooth="yes"/>
      <point x="379" y="-8"/>
      <point x="428" y="1"/>
      <point x="474" y="19" type="curve" smooth="yes"/>
      <point x="520" y="37"/>
      <point x="560" y="62"/>
      <point x="595" y="94" type="curve" smooth="yes"/>
      <point x="630" y="126"/>
      <point x="658" y="165"/>
      <point x="681" y="210" type="curve" smooth="yes"/>
      <point x="704" y="255"/>
      <point x="718" y="304"/>
      <point x="725" y="358" type="curve" smooth="yes"/>
    </contour>
    <contour>
      <point x="620" y="314"/>
      <point x="609" y="275"/>
      <point x="593" y="240" type="curve" smooth="yes"/>
      <point x="577" y="205"/>
      <point x="556" y="175"/>
      <point x="531" y="151" type="curve" smooth="yes"/>
      <point x="506" y="127"/>
      <point x="477" y="109"/>
      <point x="444" y="96" type="curve" smooth="yes"/>
      <point x="411" y="83"/>
      <point x="376" y="76"/>
      <point x="337" y="76" type="curve" smooth="yes"/>
      <point x="299" y="76"/>
      <point x="264" y="83"/>
      <point x="234" y="96" type="curve" smooth="yes"/>
      <point x="204" y="109"/>
      <point x="180" y="127"/>
      <point x="161" y="151" type="curve" smooth="yes"/>
      <point x="142" y="175"/>
      <point x="129" y="205"/>
      <point x="121" y="240" type="curve" smooth="yes"/>
      <point x="113" y="275"/>
      <point x="112" y="314"/>
      <point x="117" y="358" type="curve" smooth="yes"/>
      <point x="122" y="402"/>
      <point x="134" y="441"/>
      <point x="150" y="476" type="curve" smooth="yes"/>
      <point x="166" y="511"/>
      <point x="187" y="541"/>
      <point x="212" y="565" type="curve" smooth="yes"/>
      <point x="237" y="589"/>
      <point x="266" y="608"/>
      <point x="299" y="621" type="curve" smooth="yes"/>
      <point x="332" y="634"/>
      <point x="368" y="640"/>
      <point x="406" y="640" type="curve" smooth="yes"/>
      <point x="445" y="640"/>
      <point x="478" y="634"/>
      <point x="508" y="621" type="curve" smooth="yes"/>
      <point x="538" y="608"/>
      <point x="563" y="589"/>
      <point x="582" y="565" type="curve" smooth="yes"/>
      <point x="601" y="541"/>
      <point x="614" y="511"/>
      <point x="622" y="476" type="curve" smooth="yes"/>
      <point x="630" y="441"/>
      <point x="630" y="402"/>
      <point x="625" y="358" type="curve" smooth="yes"/>
    </contour>
    <contour>
      <point x="342" y="0" type="move" name="bottom"/>
    </contour>
    <contour>
      <point x="639" y="10" type="move" name="ogonek"/>
    </contour>
    <contour>
      <point x="428" y="716" type="move" name="top"/>
    </contour>
    <contour>
      <point x="779" y="716" type="move" name="topright"/>
    </contour>
    <contour>
      <point x="76" y="716" type="move" name="topleft"/>
    </contour>
    <contour>
      <point x="385" y="358" type="move" name="center"/>
    </contour>
  </outline>
</glyph>
<glyph name="Q" format="1">
  <advance width="743"/>
  <unicode hex="0051"/>
  <note>
    Q
  </note>
  <outline>
    <contour>
      <point x="731" y="412"/>
      <point x="728" y="461"/>
      <point x="717" y="506" type="curve" smooth="yes"/>
      <point x="706" y="551"/>
      <point x="686" y="589"/>
      <point x="659" y="622" type="curve" smooth="yes"/>
      <point x="632" y="654"/>
      <point x="598" y="680"/>
      <point x="557" y="698" type="curve" smooth="yes"/>
      <point x="516" y="716"/>
      <point x="469" y="724"/>
      <point x="416" y="724" type="curve" smooth="yes"/>
      <point x="363" y="724"/>
      <point x="314" y="716"/>
      <point x="268" y="698" type="curve" smooth="yes"/>
      <point x="222" y="680"/>
      <point x="182" y="654"/>
      <point x="147" y="622" type="curve" smooth="yes"/>
      <point x="112" y="590"/>
      <point x="84" y="551"/>
      <point x="61" y="506" type="curve" smooth="yes"/>
      <point x="38" y="461"/>
      <point x="25" y="412"/>
      <point x="18" y="358" type="curve" smooth="yes"/>
      <point x="11" y="304"/>
      <point x="14" y="255"/>
      <point x="25" y="210" type="curve" smooth="yes"/>
      <point x="36" y="165"/>
      <point x="56" y="126"/>
      <point x="83" y="94" type="curve" smooth="yes"/>
      <point x="110" y="62"/>
      <point x="144" y="37"/>
      <point x="185" y="19" type="curve" smooth="yes"/>
      <point x="226" y="1"/>
      <point x="273" y="-8"/>
      <point x="326" y="-8" type="curve" smooth="yes"/>
      <point x="348" y="-8"/>
      <point x="370" y="-6"/>
      <point x="391" y="-3" type="curve" smooth="yes"/>
      <point x="412" y="0"/>
      <point x="432" y="5"/>
      <point x="452" y="11" type="curve"/>
      <point x="561" y="-126" type="line"/>
      <point x="568" y="-134"/>
      <point x="575" y="-140"/>
      <point x="584" y="-143" type="curve" smooth="yes"/>
      <point x="593" y="-146"/>
      <point x="603" y="-148"/>
      <point x="615" y="-148" type="curve" smooth="yes"/>
      <point x="695" y="-148" type="line"/>
      <point x="536" y="50" type="line"/>
      <point x="561" y="66"/>
      <point x="585" y="85"/>
      <point x="606" y="106" type="curve" smooth="yes"/>
      <point x="627" y="127"/>
      <point x="646" y="151"/>
      <point x="662" y="177" type="curve" smooth="yes"/>
      <point x="678" y="203"/>
      <point x="691" y="232"/>
      <point x="702" y="262" type="curve" smooth="yes"/>
      <point x="713" y="292"/>
      <point x="720" y="324"/>
      <point x="724" y="358" type="curve" smooth="yes"/>
    </contour>
    <contour>
      <point x="620" y="314"/>
      <point x="608" y="275"/>
      <point x="592" y="240" type="curve" smooth="yes"/>
      <point x="576" y="205"/>
      <point x="555" y="175"/>
      <point x="530" y="151" type="curve" smooth="yes"/>
      <point x="505" y="127"/>
      <point x="476" y="109"/>
      <point x="443" y="96" type="curve" smooth="yes"/>
      <point x="410" y="83"/>
      <point x="375" y="76"/>
      <point x="336" y="76" type="curve" smooth="yes"/>
      <point x="298" y="76"/>
      <point x="264" y="83"/>
      <point x="234" y="96" type="curve" smooth="yes"/>
      <point x="204" y="109"/>
      <point x="179" y="127"/>
      <point x="160" y="151" type="curve" smooth="yes"/>
      <point x="141" y="175"/>
      <point x="128" y="205"/>
      <point x="120" y="240" type="curve" smooth="yes"/>
      <point x="112" y="275"/>
      <point x="112" y="314"/>
      <point x="117" y="358" type="curve" smooth="yes"/>
      <point x="122" y="402"/>
      <point x="133" y="441"/>
      <point x="149" y="476" type="curve" smooth="yes"/>
      <point x="165" y="511"/>
      <point x="186" y="541"/>
      <point x="211" y="565" type="curve" smooth="yes"/>
      <point x="236" y="589"/>
      <point x="265" y="608"/>
      <point x="298" y="621" type="curve" smooth="yes"/>
      <point x="331" y="634"/>
      <point x="367" y="640"/>
      <point x="405" y="640" type="curve" smooth="yes"/>
      <point x="444" y="640"/>
      <point x="478" y="634"/>
      <point x="508" y="621" type="curve" smooth="yes"/>
      <point x="538" y="608"/>
      <point x="562" y="589"/>
      <point x="581" y="565" type="curve" smooth="yes"/>
      <point x="600" y="541"/>
      <point x="613" y="511"/>
      <point x="621" y="476" type="curve" smooth="yes"/>
      <point x="629" y="441"/>
      <point x="630" y="402"/>
      <point x="625" y="358" type="curve" smooth="yes"/>
    </contour>
    <contour>
      <point x="428" y="716" type="move" name="top"/>
    </contour>
    <contour>
      <point x="342" y="0" type="move" name="bottom"/>
    </contour>
  </outline>
</glyph>
<glyph name="a" format="1">
  <advance width="517"/>
  <unicode hex="0061"/>
  <note>
    a
  </note>
  <outline>
    <contour>
      <point x="391" y="0" type="line"/>
      <point x="472" y="0" type="line"/>
      <point x="472" y="43" type="line" smooth="yes"/>
      <point x="472" y="52"/>
      <point x="466" y="60"/>
      <point x="457" y="62" type="curve" smooth="yes"/>
      <point x="449" y="64"/>
      <point x="403" y="72"/>
      <point x="400" y="73" type="curve"/>
      <point x="452" y="490" type="line"/>
      <point x="416" y="506"/>
      <point x="377" y="513"/>
      <point x="328" y="513" type="curve" smooth="yes"/>
      <point x="225" y="513"/>
      <point x="151" y="466"/>
      <point x="100" y="410" type="curve" smooth="yes"/>
      <point x="49" y="354"/>
      <point x="8" y="275"/>
      <point x="8" y="171" type="curve" smooth="yes"/>
      <point x="8" y="74"/>
      <point x="45" y="-7"/>
      <point x="140" y="-7" type="curve" smooth="yes"/>
      <point x="158" y="-7"/>
      <point x="176" y="-4"/>
      <point x="193" y="3" type="curve" smooth="yes"/>
      <point x="252" y="27"/>
      <point x="293" y="77"/>
      <point x="324" y="132" type="curve"/>
      <point x="315" y="31" type="line"/>
      <point x="315" y="11"/>
      <point x="324" y="0"/>
      <point x="345" y="0" type="curve" smooth="yes"/>
    </contour>
    <contour>
      <point x="337" y="267" type="line"/>
      <point x="320" y="213"/>
      <point x="296" y="162"/>
      <point x="266" y="124" type="curve" smooth="yes"/>
      <point x="245" y="97"/>
      <point x="214" y="67"/>
      <point x="173" y="67" type="curve" smooth="yes"/>
      <point x="122" y="67"/>
      <point x="96" y="107"/>
      <point x="96" y="187" type="curve" smooth="yes"/>
      <point x="96" y="265"/>
      <point x="125" y="325"/>
      <point x="161" y="369" type="curve" smooth="yes"/>
      <point x="195" y="410"/>
      <point x="245" y="447"/>
      <point x="316" y="447" type="curve" smooth="yes"/>
      <point x="337" y="447" type="line" smooth="yes"/>
      <point x="344" y="447"/>
      <point x="352" y="445"/>
      <point x="359" y="439" type="curve"/>
    </contour>
    <contour>
      <point x="435" y="10" type="move" name="ogonek"/>
    </contour>
    <contour>
      <point x="229" y="0" type="move" name="bottom"/>
    </contour>
    <contour>
      <point x="289" y="506" type="move" name="top"/>
    </contour>
  </outline>
</glyph>
<glyph name="b" format="1">
  <advance width="544"/>
  <unicode hex="0062"/>
  <note>
    b
  </note>
  <outline>
    <contour>
      <point x="520" y="257" type="line"/>
      <point x="525" y="299"/>
      <point x="526" y="336"/>
      <point x="521" y="368" type="curve" smooth="yes"/>
      <point x="516" y="400"/>
      <point x="506" y="427"/>
      <point x="492" y="449" type="curve" smooth="yes"/>
      <point x="478" y="471"/>
      <point x="460" y="487"/>
      <point x="438" y="498" type="curve" smooth="yes"/>
      <point x="416" y="509"/>
      <point x="389" y="515"/>
      <point x="360" y="515" type="curve" smooth="yes"/>
      <point x="325" y="515"/>
      <point x="293" y="507"/>
      <point x="264" y="492" type="curve" smooth="yes"/>
      <point x="235" y="477"/>
      <point x="209" y="458"/>
      <point x="185" y="434" type="curve"/>
      <point x="222" y="737" type="line"/>
      <point x="135" y="737" type="line"/>
      <point x="132" y="737" type="line"/>
      <point x="53" y="737" type="line" smooth="yes"/>
      <point x="53" y="737"/>
      <point x="49" y="702"/>
      <point x="48" y="693" type="curve" smooth="yes"/>
      <point x="47" y="684"/>
      <point x="52" y="677"/>
      <point x="61" y="675" type="curve"/>
      <point x="68" y="673"/>
      <point x="111" y="666"/>
      <point x="123" y="664" type="curve"/>
      <point x="54" y="102" type="line"/>
      <point x="46" y="29" type="line"/>
      <point x="44" y="21" type="line"/>
      <point x="44" y="21"/>
      <point x="175" y="-7"/>
      <point x="265" y="-7" type="curve" smooth="yes"/>
      <point x="297" y="-7"/>
      <point x="326" y="-1"/>
      <point x="355" y="11" type="curve" smooth="yes"/>
      <point x="384" y="23"/>
      <point x="409" y="39"/>
      <point x="432" y="61" type="curve" smooth="yes"/>
      <point x="455" y="83"/>
      <point x="474" y="111"/>
      <point x="489" y="143" type="curve" smooth="yes"/>
      <point x="504" y="175"/>
      <point x="515" y="213"/>
      <point x="520" y="254" type="curve"/>
      <point x="520" y="255" type="line"/>
    </contour>
    <contour>
      <point x="356" y="96"/>
      <point x="339" y="84"/>
      <point x="320" y="75" type="curve" smooth="yes"/>
      <point x="303" y="67"/>
      <point x="284" y="63"/>
      <point x="264" y="62" type="curve"/>
      <point x="258" y="62" type="line" smooth="yes"/>
      <point x="252" y="62"/>
      <point x="245" y="63"/>
      <point x="239" y="63" type="curve"/>
      <point x="196" y="66"/>
      <point x="154" y="76"/>
      <point x="141" y="79" type="curve"/>
      <point x="146" y="122" type="line"/>
      <point x="162" y="249" type="line"/>
      <point x="177" y="367" type="line"/>
      <point x="198" y="391"/>
      <point x="221" y="411"/>
      <point x="244" y="424" type="curve" smooth="yes"/>
      <point x="267" y="437"/>
      <point x="293" y="444"/>
      <point x="322" y="444" type="curve" smooth="yes"/>
      <point x="342" y="444"/>
      <point x="361" y="440"/>
      <point x="376" y="433" type="curve" smooth="yes"/>
      <point x="391" y="426"/>
      <point x="403" y="415"/>
      <point x="412" y="400" type="curve" smooth="yes"/>
      <point x="421" y="385"/>
      <point x="427" y="366"/>
      <point x="430" y="342" type="curve" smooth="yes"/>
      <point x="433" y="318"/>
      <point x="432" y="290"/>
      <point x="428" y="257" type="curve"/>
      <point x="428" y="254"/>
      <point x="427" y="252"/>
      <point x="427" y="249" type="curve"/>
      <point x="423" y="220"/>
      <point x="417" y="195"/>
      <point x="408" y="172" type="curve" smooth="yes"/>
      <point x="398" y="148"/>
      <point x="386" y="128"/>
      <point x="371" y="112" type="curve" smooth="yes"/>
    </contour>
    <contour>
      <point x="302" y="506" type="move" name="top"/>
    </contour>
    <contour>
      <point x="242" y="0" type="move" name="bottom"/>
    </contour>
  </outline>
</glyph>
<glyph name="d" format="1">
  <advance width="544"/>
  <unicode hex="0064"/>
  <note>
    d
  </note>
  <outline>
    <contour>
      <point x="193" y="516"/>
      <point x="136" y="491"/>
      <point x="90" y="440" type="curve" smooth="yes"/>
      <point x="45" y="391"/>
      <point x="17" y="329"/>
      <point x="8" y="252" type="curve" smooth="yes"/>
      <point x="-2" y="169"/>
      <point x="8" y="104"/>
      <point x="37" y="59" type="curve" smooth="yes"/>
      <point x="65" y="15"/>
      <point x="109" y="-7"/>
      <point x="168" y="-7" type="curve" smooth="yes"/>
      <point x="234" y="-7"/>
      <point x="294" y="22"/>
      <point x="349" y="80" type="curve"/>
      <point x="349" y="18" type="line"/>
      <point x="351" y="6"/>
      <point x="358" y="0"/>
      <point x="371" y="0" type="curve" smooth="yes"/>
      <point x="496" y="0" type="line"/>
      <point x="501" y="43" type="line" smooth="yes"/>
      <point x="502" y="53"/>
      <point x="499" y="60"/>
      <point x="489" y="62" type="curve" smooth="yes"/>
      <point x="483" y="63"/>
      <point x="464" y="67"/>
      <point x="433" y="73" type="curve"/>
      <point x="515" y="737" type="line"/>
      <point x="344" y="737" type="line"/>
      <point x="338" y="694" type="line"/>
      <point x="337" y="684"/>
      <point x="341" y="677"/>
      <point x="351" y="675" type="curve" smooth="yes"/>
      <point x="361" y="673"/>
      <point x="384" y="669"/>
      <point x="417" y="664" type="curve"/>
      <point x="391" y="456" type="line"/>
      <point x="360" y="496"/>
      <point x="316" y="516"/>
      <point x="260" y="516" type="curve" smooth="yes"/>
    </contour>
    <contour>
      <point x="186" y="65"/>
      <point x="168" y="69"/>
      <point x="153" y="76" type="curve" smooth="yes"/>
      <point x="106" y="98"/>
      <point x="88" y="156"/>
      <point x="100" y="252" type="curve" smooth="yes"/>
      <point x="108" y="314"/>
      <point x="127" y="362"/>
      <point x="156" y="396" type="curve" smooth="yes"/>
      <point x="185" y="430"/>
      <point x="225" y="446"/>
      <point x="273" y="446" type="curve" smooth="yes"/>
      <point x="321" y="446"/>
      <point x="359" y="426"/>
      <point x="383" y="386" type="curve"/>
      <point x="352" y="142" type="line"/>
      <point x="307" y="91"/>
      <point x="260" y="65"/>
      <point x="207" y="65" type="curve" smooth="yes"/>
    </contour>
    <contour>
      <point x="242" y="0" type="move" name="bottom"/>
    </contour>
    <contour>
      <point x="302" y="506" type="move" name="top"/>
    </contour>
    <contour>
      <point x="554" y="506" type="move" name="topright"/>
    </contour>
    <contour>
      <point x="272" y="253" type="move" name="center"/>
    </contour>
  </outline>
</glyph>
<glyph name="k" format="1">
  <advance width="525"/>
  <unicode hex="006B"/>
  <note>
    k
  </note>
  <outline>
    <contour>
      <point x="518" y="507" type="line"/>
      <point x="313" y="507" type="line"/>
      <point x="308" y="464" type="line" smooth="yes"/>
      <point x="305" y="443"/>
      <point x="330" y="444"/>
      <point x="348" y="440" type="curve"/>
      <point x="219" y="317" type="line" smooth="yes"/>
      <point x="209" y="308"/>
      <point x="198" y="303"/>
      <point x="186" y="303" type="curve" smooth="yes"/>
      <point x="163" y="303" type="line"/>
      <point x="216" y="737" type="line"/>
      <point x="55" y="737" type="line"/>
      <point x="50" y="694" type="line" smooth="yes"/>
      <point x="49" y="684"/>
      <point x="52" y="677"/>
      <point x="62" y="675" type="curve" smooth="yes"/>
      <point x="68" y="674"/>
      <point x="87" y="670"/>
      <point x="118" y="664" type="curve"/>
      <point x="91" y="443"/>
      <point x="63" y="221"/>
      <point x="36" y="0" type="curve"/>
      <point x="126" y="0" type="line"/>
      <point x="136" y="81"/>
      <point x="146" y="161"/>
      <point x="156" y="242" type="curve"/>
      <point x="181" y="242" type="line" smooth="yes"/>
      <point x="202" y="242"/>
      <point x="208" y="239"/>
      <point x="216" y="225" type="curve"/>
      <point x="357" y="17" type="line" smooth="yes"/>
      <point x="365" y="5"/>
      <point x="375" y="0"/>
      <point x="388" y="0" type="curve" smooth="yes"/>
      <point x="483" y="0" type="line"/>
      <point x="488" y="43" type="line" smooth="yes"/>
      <point x="491" y="65"/>
      <point x="470" y="63"/>
      <point x="445" y="68" type="curve" smooth="yes"/>
      <point x="420" y="73" type="line"/>
      <point x="301" y="250" type="line"/>
      <point x="294" y="264"/>
      <point x="285" y="275"/>
      <point x="275" y="282" type="curve"/>
      <point x="285" y="287"/>
      <point x="295" y="296"/>
      <point x="307" y="308" type="curve" smooth="yes"/>
      <point x="441" y="434" type="line"/>
      <point x="475" y="440"/>
      <point x="495" y="444"/>
      <point x="504" y="446" type="curve" smooth="yes"/>
      <point x="513" y="448"/>
      <point x="518" y="454"/>
      <point x="519" y="464" type="curve" smooth="yes"/>
      <point x="524" y="507" type="line"/>
    </contour>
    <contour>
      <point x="293" y="506" type="move" name="top"/>
    </contour>
    <contour>
      <point x="233" y="0" type="move" name="bottom"/>
    </contour>
  </outline>
</glyph>
<glyph name="q" format="1">
  <advance width="519"/>
  <unicode hex="0071"/>
  <note>
    q
  </note>
  <outline>
    <contour>
      <point x="327" y="-98" type="line"/>
      <point x="289" y="-104"/>
      <point x="265" y="-107"/>
      <point x="256" y="-109" type="curve" smooth="yes"/>
      <point x="247" y="-111"/>
      <point x="242" y="-117"/>
      <point x="241" y="-127" type="curve" smooth="yes"/>
      <point x="236" y="-170" type="line"/>
      <point x="486" y="-170" type="line"/>
      <point x="491" y="-127" type="line" smooth="yes"/>
      <point x="492" y="-117"/>
      <point x="489" y="-111"/>
      <point x="479" y="-109" type="curve" smooth="yes"/>
      <point x="474" y="-108"/>
      <point x="453" y="-104"/>
      <point x="416" y="-98" type="curve"/>
      <point x="488" y="488" type="line"/>
      <point x="453" y="494" type="line" smooth="yes"/>
      <point x="383" y="508"/>
      <point x="321" y="516"/>
      <point x="268" y="516" type="curve" smooth="yes"/>
      <point x="203" y="516"/>
      <point x="147" y="493"/>
      <point x="100" y="448" type="curve" smooth="yes"/>
      <point x="51" y="400"/>
      <point x="22" y="336"/>
      <point x="12" y="254" type="curve"/>
      <point x="12" y="252" type="line"/>
      <point x="2" y="169"/>
      <point x="11" y="105"/>
      <point x="40" y="60" type="curve" smooth="yes"/>
      <point x="68" y="16"/>
      <point x="112" y="-6"/>
      <point x="172" y="-6" type="curve" smooth="yes"/>
      <point x="236" y="-6"/>
      <point x="295" y="21"/>
      <point x="348" y="75" type="curve"/>
    </contour>
    <contour>
      <point x="124" y="65"/>
      <point x="89" y="127"/>
      <point x="104" y="252" type="curve" smooth="yes"/>
      <point x="107" y="279" type="line" smooth="yes"/>
      <point x="109" y="295"/>
      <point x="115" y="315"/>
      <point x="124" y="337" type="curve" smooth="yes"/>
      <point x="153" y="408"/>
      <point x="201" y="444"/>
      <point x="268" y="447" type="curve"/>
      <point x="274" y="447" type="line" smooth="yes"/>
      <point x="309" y="447"/>
      <point x="348" y="441"/>
      <point x="391" y="430" type="curve"/>
      <point x="356" y="142" type="line"/>
      <point x="311" y="91"/>
      <point x="263" y="65"/>
      <point x="210" y="65" type="curve" smooth="yes"/>
    </contour>
    <contour>
      <point x="290" y="506" type="move" name="top"/>
    </contour>
    <contour>
      <point x="230" y="0" type="move" name="bottom"/>
    </contour>
  </outline>
</glyph>
<glyph name="s" format="1">
  <advance width="415"/>
  <unicode hex="0073"/>
  <note>
    s
  </note>
  <outline>
    <contour>
      <point x="199" y="514"/>
      <point x="150" y="500"/>
      <point x="113" y="470" type="curve" smooth="yes"/>
      <point x="78" y="443"/>
      <point x="59" y="409"/>
      <point x="54" y="368" type="curve" smooth="yes"/>
      <point x="49" y="329"/>
      <point x="58" y="297"/>
      <point x="83" y="274" type="curve" smooth="yes"/>
      <point x="94" y="264"/>
      <point x="109" y="255"/>
      <point x="126" y="247" type="curve" smooth="yes"/>
      <point x="143" y="239"/>
      <point x="173" y="229"/>
      <point x="215" y="215" type="curve" smooth="yes"/>
      <point x="230" y="210"/>
      <point x="243" y="204"/>
      <point x="255" y="198" type="curve" smooth="yes"/>
      <point x="267" y="192"/>
      <point x="276" y="183"/>
      <point x="282" y="174" type="curve" smooth="yes"/>
      <point x="288" y="165"/>
      <point x="290" y="151"/>
      <point x="288" y="132" type="curve" smooth="yes"/>
      <point x="286" y="113"/>
      <point x="275" y="96"/>
      <point x="256" y="81" type="curve" smooth="yes"/>
      <point x="235" y="64"/>
      <point x="208" y="56"/>
      <point x="175" y="56" type="curve" smooth="yes"/>
      <point x="135" y="56"/>
      <point x="102" y="63"/>
      <point x="75" y="76" type="curve"/>
      <point x="77" y="116"/>
      <point x="77" y="137"/>
      <point x="77" y="140" type="curve"/>
      <point x="76" y="148"/>
      <point x="71" y="152"/>
      <point x="63" y="152" type="curve" smooth="yes"/>
      <point x="28" y="152" type="line"/>
      <point x="12" y="20" type="line"/>
      <point x="64" y="1"/>
      <point x="117" y="-7"/>
      <point x="172" y="-7" type="curve" smooth="yes"/>
      <point x="227" y="-7"/>
      <point x="273" y="8"/>
      <point x="311" y="39" type="curve" smooth="yes"/>
      <point x="348" y="68"/>
      <point x="369" y="107"/>
      <point x="375" y="155" type="curve" smooth="yes"/>
      <point x="380" y="192"/>
      <point x="370" y="222"/>
      <point x="345" y="244" type="curve" smooth="yes"/>
      <point x="334" y="254"/>
      <point x="321" y="262"/>
      <point x="306" y="269" type="curve" smooth="yes"/>
      <point x="291" y="276"/>
      <point x="276" y="281"/>
      <point x="260" y="287" type="curve"/>
      <point x="244" y="292"/>
      <point x="224" y="299"/>
      <point x="200" y="307" type="curve" smooth="yes"/>
      <point x="176" y="315"/>
      <point x="158" y="326"/>
      <point x="147" y="342" type="curve"/>
      <point x="140" y="351"/>
      <point x="138" y="364"/>
      <point x="140" y="381" type="curve" smooth="yes"/>
      <point x="142" y="398"/>
      <point x="153" y="413"/>
      <point x="172" y="427" type="curve" smooth="yes"/>
      <point x="191" y="441"/>
      <point x="216" y="448"/>
      <point x="244" y="448" type="curve" smooth="yes"/>
      <point x="245" y="448" type="line" smooth="yes"/>
      <point x="267" y="448"/>
      <point x="292" y="445"/>
      <point x="321" y="438" type="curve"/>
      <point x="319" y="396"/>
      <point x="319" y="373"/>
      <point x="319" y="372" type="curve"/>
      <point x="320" y="363"/>
      <point x="325" y="358"/>
      <point x="335" y="358" type="curve" smooth="yes"/>
      <point x="374" y="358" type="line"/>
      <point x="386" y="453" type="line"/>
      <point x="390" y="488" type="line"/>
      <point x="339" y="506"/>
      <point x="296" y="514"/>
      <point x="261" y="514" type="curve" smooth="yes"/>
    </contour>
    <contour>
      <point x="238" y="506" type="move" name="top"/>
    </contour>
    <contour>
      <point x="178" y="0" type="move" name="bottom"/>
    </contour>
  </outline>
</glyph>
<glyph name="v" format="1">
  <advance width="560"/>
  <unicode hex="0076"/>
  <note>
    v
  </note>
  <outline>
    <contour>
      <point x="541" y="506" type="line"/>
      <point x="351" y="506" type="line"/>
      <point x="346" y="464" type="line" smooth="yes"/>
      <point x="345" y="454"/>
      <point x="348" y="447"/>
      <point x="358" y="445" type="curve" smooth="yes"/>
      <point x="388" y="439"/>
      <point x="407" y="436"/>
      <point x="414" y="434" type="curve"/>
      <point x="273" y="162" type="line" smooth="yes"/>
      <point x="265" y="147"/>
      <point x="255" y="122"/>
      <point x="244" y="90" type="curve"/>
      <point x="241" y="123"/>
      <point x="238" y="147"/>
      <point x="234" y="162" type="curve" smooth="yes"/>
      <point x="160" y="434" type="line"/>
      <point x="192" y="440"/>
      <point x="211" y="444"/>
      <point x="217" y="445" type="curve" smooth="yes"/>
      <point x="227" y="447"/>
      <point x="233" y="454"/>
      <point x="234" y="464" type="curve" smooth="yes"/>
      <point x="239" y="506" type="line"/>
      <point x="12" y="506" type="line"/>
      <point x="7" y="464" type="line" smooth="yes"/>
      <point x="6" y="454"/>
      <point x="10" y="447"/>
      <point x="20" y="445" type="curve"/>
      <point x="21" y="445"/>
      <point x="28" y="444"/>
      <point x="41" y="441" type="curve"/>
      <point x="54" y="439"/>
      <point x="62" y="436"/>
      <point x="68" y="435" type="curve"/>
      <point x="192" y="0" type="line"/>
      <point x="272" y="0" type="line"/>
      <point x="503" y="435" type="line"/>
      <point x="533" y="441"/>
      <point x="549" y="444"/>
      <point x="553" y="445" type="curve"/>
      <point x="563" y="447"/>
      <point x="569" y="454"/>
      <point x="570" y="464" type="curve" smooth="yes"/>
      <point x="575" y="506" type="line"/>
    </contour>
    <contour>
      <point x="310" y="506" type="move" name="top"/>
    </contour>
    <contour>
      <point x="250" y="0" type="move" name="bottom"/>
    </contour>
  </outline>
</glyph>
<glyph name="currency" format="1">
  <advance width="529"/>
  <unicode hex="00A4"/>
  <note>
    currency
  </note>
  <outline>
    <contour>
      <point x="84" y="317"/>
      <point x="84" y="298"/>
      <point x="88" y="281" type="curve" smooth="yes"/>
      <point x="92" y="264"/>
      <point x="97" y="249"/>
      <point x="105" y="234" type="curve"/>
      <point x="20" y="158" type="line"/>
      <point x="59" y="112" type="line"/>
      <point x="145" y="188" type="line"/>
      <point x="158" y="178"/>
      <point x="174" y="172"/>
      <point x="190" y="166" type="curve" smooth="yes"/>
      <point x="206" y="160"/>
      <point x="223" y="158"/>
      <point x="242" y="158" type="curve" smooth="yes"/>
      <point x="261" y="158"/>
      <point x="280" y="160"/>
      <point x="298" y="166" type="curve" smooth="yes"/>
      <point x="316" y="172"/>
      <point x="333" y="180"/>
      <point x="349" y="190" type="curve"/>
      <point x="416" y="114" type="line"/>
      <point x="467" y="160" type="line"/>
      <point x="400" y="235" type="line"/>
      <point x="411" y="249"/>
      <point x="421" y="265"/>
      <point x="429" y="282" type="curve" smooth="yes"/>
      <point x="437" y="299"/>
      <point x="441" y="317"/>
      <point x="443" y="336" type="curve" smooth="yes"/>
      <point x="445" y="355"/>
      <point x="446" y="374"/>
      <point x="442" y="391" type="curve" smooth="yes"/>
      <point x="438" y="408"/>
      <point x="433" y="423"/>
      <point x="424" y="438" type="curve"/>
      <point x="508" y="514" type="line"/>
      <point x="469" y="560" type="line"/>
      <point x="384" y="484" type="line"/>
      <point x="371" y="494"/>
      <point x="355" y="501"/>
      <point x="339" y="507" type="curve" smooth="yes"/>
      <point x="323" y="513"/>
      <point x="305" y="515"/>
      <point x="286" y="515" type="curve" smooth="yes"/>
      <point x="267" y="515"/>
      <point x="248" y="512"/>
      <point x="230" y="506" type="curve" smooth="yes"/>
      <point x="212" y="500"/>
      <point x="195" y="492"/>
      <point x="179" y="482" type="curve"/>
      <point x="113" y="558" type="line"/>
      <point x="62" y="514" type="line"/>
      <point x="129" y="437" type="line"/>
      <point x="118" y="422"/>
      <point x="109" y="407"/>
      <point x="101" y="390" type="curve" smooth="yes"/>
      <point x="93" y="373"/>
      <point x="88" y="355"/>
      <point x="86" y="336" type="curve" smooth="yes"/>
    </contour>
    <contour>
      <point x="154" y="352"/>
      <point x="158" y="366"/>
      <point x="166" y="380" type="curve" smooth="yes"/>
      <point x="174" y="394"/>
      <point x="183" y="406"/>
      <point x="195" y="416" type="curve" smooth="yes"/>
      <point x="207" y="426"/>
      <point x="219" y="434"/>
      <point x="233" y="440" type="curve" smooth="yes"/>
      <point x="247" y="446"/>
      <point x="262" y="449"/>
      <point x="278" y="449" type="curve" smooth="yes"/>
      <point x="294" y="449"/>
      <point x="308" y="446"/>
      <point x="321" y="440" type="curve" smooth="yes"/>
      <point x="334" y="434"/>
      <point x="345" y="426"/>
      <point x="354" y="416" type="curve" smooth="yes"/>
      <point x="363" y="406"/>
      <point x="370" y="394"/>
      <point x="374" y="380" type="curve" smooth="yes"/>
      <point x="378" y="366"/>
      <point x="380" y="352"/>
      <point x="378" y="336" type="curve" smooth="yes"/>
      <point x="376" y="321"/>
      <point x="372" y="307"/>
      <point x="364" y="293" type="curve" smooth="yes"/>
      <point x="356" y="279"/>
      <point x="346" y="267"/>
      <point x="335" y="257" type="curve" smooth="yes"/>
      <point x="324" y="247"/>
      <point x="311" y="239"/>
      <point x="296" y="233" type="curve" smooth="yes"/>
      <point x="281" y="227"/>
      <point x="267" y="224"/>
      <point x="251" y="224" type="curve" smooth="yes"/>
      <point x="235" y="224"/>
      <point x="221" y="227"/>
      <point x="208" y="233" type="curve" smooth="yes"/>
      <point x="195" y="239"/>
      <point x="184" y="247"/>
      <point x="175" y="257" type="curve" smooth="yes"/>
      <point x="166" y="267"/>
      <point x="159" y="279"/>
      <point x="155" y="293" type="curve" smooth="yes"/>
      <point x="151" y="307"/>
      <point x="150" y="321"/>
      <point x="152" y="336" type="curve" smooth="yes"/>
    </contour>
  </outline>
</glyph>
<glyph name="yen" format="1">
  <advance width="568"/>
  <unicode hex="00A5"/>
  <note>
    yen
  </note>
  <outline>
    <contour>
      <point x="43" y="312" type="line"/>
      <point x="37" y="262" type="line"/>
      <point x="207" y="262" type="line"/>
      <point x="200" y="209" type="line"/>
      <point x="30" y="209" type="line"/>
      <point x="24" y="158" type="line"/>
      <point x="194" y="158" type="line"/>
      <point x="175" y="0" type="line"/>
      <point x="264" y="0" type="line"/>
      <point x="284" y="158" type="line"/>
      <point x="454" y="158" type="line"/>
      <point x="460" y="209" type="line"/>
      <point x="290" y="209" type="line"/>
      <point x="296" y="262" type="line"/>
      <point x="466" y="262" type="line"/>
      <point x="473" y="312" type="line"/>
      <point x="319" y="312" type="line"/>
      <point x="573" y="716" type="line"/>
      <point x="498" y="716" type="line" smooth="yes"/>
      <point x="490" y="716"/>
      <point x="483" y="715"/>
      <point x="477" y="710" type="curve" smooth="yes"/>
      <point x="471" y="705"/>
      <point x="465" y="700"/>
      <point x="462" y="694" type="curve"/>
      <point x="290" y="411" type="line"/>
      <point x="284" y="400"/>
      <point x="279" y="389"/>
      <point x="275" y="379" type="curve" smooth="yes"/>
      <point x="271" y="369"/>
      <point x="267" y="360"/>
      <point x="263" y="350" type="curve"/>
      <point x="262" y="360"/>
      <point x="260" y="369"/>
      <point x="258" y="379" type="curve" smooth="yes"/>
      <point x="256" y="389"/>
      <point x="253" y="399"/>
      <point x="250" y="411" type="curve"/>
      <point x="147" y="694" type="line"/>
      <point x="144" y="701"/>
      <point x="141" y="706"/>
      <point x="136" y="710" type="curve" smooth="yes"/>
      <point x="131" y="714"/>
      <point x="125" y="716"/>
      <point x="116" y="716" type="curve" smooth="yes"/>
      <point x="42" y="716" type="line"/>
      <point x="196" y="312" type="line"/>
    </contour>
  </outline>
</glyph>
<glyph name="onehalf" format="1">
  <advance width="658"/>
  <unicode hex="00BD"/>
  <note>
    onehalf
  </note>
  <outline>
    <contour>
      <point x="530" y="135" type="line" smooth="yes"/>
      <point x="541" y="145"/>
      <point x="552" y="154"/>
      <point x="562" y="164" type="curve" smooth="yes"/>
      <point x="597" y="198"/>
      <point x="617" y="231"/>
      <point x="621" y="264" type="curve" smooth="yes"/>
      <point x="625" y="295"/>
      <point x="618" y="321"/>
      <point x="599" y="340" type="curve" smooth="yes"/>
      <point x="580" y="359"/>
      <point x="554" y="368"/>
      <point x="519" y="368" type="curve" smooth="yes"/>
      <point x="485" y="368"/>
      <point x="454" y="360"/>
      <point x="429" y="342" type="curve" smooth="yes"/>
      <point x="404" y="324"/>
      <point x="387" y="297"/>
      <point x="378" y="262" type="curve"/>
      <point x="412" y="256" type="line"/>
      <point x="415" y="255"/>
      <point x="418" y="256"/>
      <point x="421" y="256" type="curve" smooth="yes"/>
      <point x="430" y="256"/>
      <point x="438" y="260"/>
      <point x="445" y="270" type="curve"/>
      <point x="459" y="300"/>
      <point x="480" y="316"/>
      <point x="509" y="316" type="curve" smooth="yes"/>
      <point x="524" y="316"/>
      <point x="536" y="311"/>
      <point x="545" y="302" type="curve" smooth="yes"/>
      <point x="554" y="293"/>
      <point x="557" y="279"/>
      <point x="555" y="262" type="curve" smooth="yes"/>
      <point x="551" y="232"/>
      <point x="527" y="198"/>
      <point x="482" y="158" type="curve" smooth="yes"/>
      <point x="358" y="48" type="line" smooth="yes"/>
      <point x="350" y="41"/>
      <point x="345" y="32"/>
      <point x="344" y="22" type="curve" smooth="yes"/>
      <point x="342" y="0" type="line"/>
      <point x="597" y="0" type="line"/>
      <point x="609" y="97" type="line"/>
      <point x="581" y="97" type="line" smooth="yes"/>
      <point x="574" y="97"/>
      <point x="570" y="94"/>
      <point x="568" y="87" type="curve"/>
      <point x="567" y="85"/>
      <point x="565" y="77"/>
      <point x="562" y="60" type="curve"/>
      <point x="485" y="60" type="line" smooth="yes"/>
      <point x="473" y="60"/>
      <point x="457" y="57"/>
      <point x="438" y="52" type="curve"/>
    </contour>
    <contour>
      <point x="36" y="394" type="line"/>
      <point x="31" y="352" type="line"/>
      <point x="235" y="352" type="line"/>
      <point x="240" y="394" type="line"/>
      <point x="175" y="394" type="line"/>
      <point x="215" y="717" type="line"/>
      <point x="161" y="717" type="line"/>
      <point x="38" y="622" type="line"/>
      <point x="54" y="594" type="line"/>
      <point x="56" y="589"/>
      <point x="61" y="587"/>
      <point x="67" y="587" type="curve" smooth="yes"/>
      <point x="73" y="587"/>
      <point x="79" y="589"/>
      <point x="83" y="592" type="curve" smooth="yes"/>
      <point x="142" y="636" type="line"/>
      <point x="137" y="614" type="line"/>
      <point x="110" y="394" type="line"/>
    </contour>
    <contour>
      <point x="605" y="716" type="line"/>
      <point x="566" y="716" type="line" smooth="yes"/>
      <point x="547" y="716"/>
      <point x="530" y="706"/>
      <point x="515" y="686" type="curve" smooth="yes"/>
      <point x="22" y="0" type="line"/>
      <point x="60" y="0" type="line" smooth="yes"/>
      <point x="80" y="0"/>
      <point x="96" y="8"/>
      <point x="109" y="26" type="curve" smooth="yes"/>
    </contour>
  </outline>
</glyph>
<glyph name="Egrave" format="1">
  <advance width="572"/>
  <unicode hex="00C8"/>
  <note>
    Egrave
  </note>
  <outline>
    <contour>
      <point x="78" y="716" type="line"/>
      <point x="73" y="674" type="line" smooth="yes"/>
      <point x="72" y="664"/>
      <point x="76" y="657"/>
      <point x="86" y="655" type="curve" smooth="yes"/>
      <point x="92" y="654"/>
      <point x="111" y="650"/>
      <point x="142" y="644" type="curve"/>
      <point x="71" y="73" type="line"/>
      <point x="13" y="62" type="line" smooth="yes"/>
      <point x="3" y="60"/>
      <point x="-3" y="53"/>
      <point x="-4" y="43" type="curve"/>
      <point x="-10" y="0" type="line"/>
      <point x="504" y="0" type="line"/>
      <point x="525" y="167" type="line"/>
      <point x="477" y="167" type="line" smooth="yes"/>
      <point x="465" y="167"/>
      <point x="457" y="161"/>
      <point x="453" y="150" type="curve" smooth="yes"/>
      <point x="452" y="147"/>
      <point x="447" y="123"/>
      <point x="438" y="79" type="curve"/>
      <point x="170" y="79" type="line"/>
      <point x="200" y="324" type="line"/>
      <point x="464" y="324" type="line"/>
      <point x="473" y="400" type="line"/>
      <point x="209" y="400" type="line"/>
      <point x="238" y="638" type="line"/>
      <point x="506" y="638" type="line"/>
      <point x="504" y="590"/>
      <point x="504" y="564"/>
      <point x="504" y="561" type="curve"/>
      <point x="505" y="549"/>
      <point x="511" y="544"/>
      <point x="523" y="544" type="curve" smooth="yes"/>
      <point x="571" y="544" type="line"/>
      <point x="592" y="716" type="line"/>
    </contour>
    <contour>
      <point x="218" y="891" type="line"/>
      <point x="353" y="782" type="line" smooth="yes"/>
      <point x="358" y="778"/>
      <point x="362" y="776"/>
      <point x="366" y="775" type="curve" smooth="yes"/>
      <point x="370" y="774"/>
      <point x="375" y="773"/>
      <point x="382" y="773" type="curve" smooth="yes"/>
      <point x="452" y="773" type="line"/>
      <point x="359" y="874" type="line"/>
      <point x="353" y="881"/>
      <point x="348" y="886"/>
      <point x="343" y="888" type="curve" smooth="yes"/>
      <point x="338" y="890"/>
      <point x="330" y="891"/>
      <point x="319" y="891" type="curve" smooth="yes"/>
    </contour>
  </outline>
</glyph>
<glyph name="multiply" format="1">
  <advance width="464"/>
  <unicode hex="00D7"/>
  <note>
    multiply
  </note>
  <outline>
    <contour>
      <point x="472" y="507" type="line"/>
      <point x="430" y="555" type="line"/>
      <point x="237" y="383" type="line"/>
      <point x="85" y="556" type="line"/>
      <point x="32" y="508" type="line"/>
      <point x="183" y="336" type="line"/>
      <point x="-16" y="158" type="line"/>
      <point x="25" y="110" type="line"/>
      <point x="225" y="288" type="line"/>
      <point x="381" y="110" type="line"/>
      <point x="434" y="158" type="line"/>
      <point x="279" y="335" type="line"/>
    </contour>
  </outline>
</glyph>
<glyph name="Uacute" format="1">
  <advance width="728"/>
  <unicode hex="00DA"/>
  <note>
    Uacute
  </note>
  <outline>
    <contour>
      <point x="684" y="716" type="line"/>
      <point x="587" y="716" type="line"/>
      <point x="506" y="716" type="line"/>
      <point x="501" y="674" type="line" smooth="yes"/>
      <point x="500" y="664"/>
      <point x="504" y="657"/>
      <point x="514" y="655" type="curve" smooth="yes"/>
      <point x="519" y="654"/>
      <point x="541" y="651"/>
      <point x="579" y="644" type="curve"/>
      <point x="534" y="281" type="line" smooth="yes"/>
      <point x="527" y="220"/>
      <point x="504" y="171"/>
      <point x="466" y="134" type="curve" smooth="yes"/>
      <point x="427" y="96"/>
      <point x="378" y="77"/>
      <point x="320" y="77" type="curve" smooth="yes"/>
      <point x="262" y="77"/>
      <point x="219" y="96"/>
      <point x="189" y="134" type="curve" smooth="yes"/>
      <point x="160" y="171"/>
      <point x="150" y="221"/>
      <point x="157" y="282" type="curve" smooth="yes"/>
      <point x="201" y="644" type="line"/>
      <point x="241" y="651"/>
      <point x="264" y="654"/>
      <point x="269" y="655" type="curve" smooth="yes"/>
      <point x="280" y="657"/>
      <point x="286" y="664"/>
      <point x="287" y="674" type="curve" smooth="yes"/>
      <point x="292" y="716" type="line"/>
      <point x="41" y="716" type="line"/>
      <point x="36" y="674" type="line" smooth="yes"/>
      <point x="35" y="664"/>
      <point x="39" y="657"/>
      <point x="49" y="655" type="curve" smooth="yes"/>
      <point x="55" y="654"/>
      <point x="74" y="650"/>
      <point x="105" y="644" type="curve"/>
      <point x="60" y="281" type="line" smooth="yes"/>
      <point x="50" y="197"/>
      <point x="67" y="128"/>
      <point x="111" y="74" type="curve" smooth="yes"/>
      <point x="157" y="19"/>
      <point x="223" y="-8"/>
      <point x="310" y="-8" type="curve" smooth="yes"/>
      <point x="397" y="-8"/>
      <point x="470" y="19"/>
      <point x="529" y="74" type="curve" smooth="yes"/>
      <point x="586" y="128"/>
      <point x="621" y="197"/>
      <point x="631" y="281" type="curve" smooth="yes"/>
      <point x="675" y="644" type="line"/>
      <point x="733" y="655" type="line" smooth="yes"/>
      <point x="744" y="657"/>
      <point x="750" y="664"/>
      <point x="751" y="674" type="curve" smooth="yes"/>
      <point x="756" y="716" type="line"/>
    </contour>
    <contour>
      <point x="590" y="891" type="line"/>
      <point x="490" y="891" type="line" smooth="yes"/>
      <point x="484" y="891"/>
      <point x="480" y="890"/>
      <point x="476" y="890" type="curve" smooth="yes"/>
      <point x="472" y="890"/>
      <point x="468" y="889"/>
      <point x="465" y="888" type="curve" smooth="yes"/>
      <point x="462" y="887"/>
      <point x="459" y="884"/>
      <point x="456" y="882" type="curve" smooth="yes"/>
      <point x="453" y="880"/>
      <point x="450" y="877"/>
      <point x="446" y="874" type="curve"/>
      <point x="328" y="773" type="line"/>
      <point x="397" y="773" type="line" smooth="yes"/>
      <point x="404" y="773"/>
      <point x="409" y="774"/>
      <point x="414" y="775" type="curve"/>
      <point x="418" y="776"/>
      <point x="424" y="779"/>
      <point x="430" y="783" type="curve" smooth="yes"/>
    </contour>
  </outline>
</glyph>
<glyph name="Ucircumflex" format="1">
  <advance width="728"/>
  <unicode hex="00DB"/>
  <note>
    Ucircumflex
  </note>
  <outline>
    <contour>
      <point x="684" y="716" type="line"/>
      <point x="587" y="716" type="line"/>
      <point x="506" y="716" type="line"/>
      <point x="501" y="674" type="line" smooth="yes"/>
      <point x="500" y="664"/>
      <point x="504" y="657"/>
      <point x="514" y="655" type="curve" smooth="yes"/>
      <point x="519" y="654"/>
      <point x="541" y="651"/>
      <point x="579" y="644" type="curve"/>
      <point x="534" y="281" type="line" smooth="yes"/>
      <point x="527" y="220"/>
      <point x="504" y="171"/>
      <point x="466" y="134" type="curve" smooth="yes"/>
      <point x="427" y="96"/>
      <point x="378" y="77"/>
      <point x="320" y="77" type="curve" smooth="yes"/>
      <point x="262" y="77"/>
      <point x="219" y="96"/>
      <point x="189" y="134" type="curve" smooth="yes"/>
      <point x="160" y="171"/>
      <point x="150" y="221"/>
      <point x="157" y="282" type="curve" smooth="yes"/>
      <point x="201" y="644" type="line"/>
      <point x="241" y="651"/>
      <point x="264" y="654"/>
      <point x="269" y="655" type="curve" smooth="yes"/>
      <point x="280" y="657"/>
      <point x="286" y="664"/>
      <point x="287" y="674" type="curve" smooth="yes"/>
      <point x="292" y="716" type="line"/>
      <point x="41" y="716" type="line"/>
      <point x="36" y="674" type="line" smooth="yes"/>
      <point x="35" y="664"/>
      <point x="39" y="657"/>
      <point x="49" y="655" type="curve" smooth="yes"/>
      <point x="55" y="654"/>
      <point x="74" y="650"/>
      <point x="105" y="644" type="curve"/>
      <point x="60" y="281" type="line" smooth="yes"/>
      <point x="50" y="197"/>
      <point x="67" y="128"/>
      <point x="111" y="74" type="curve" smooth="yes"/>
      <point x="157" y="19"/>
      <point x="223" y="-8"/>
      <point x="310" y="-8" type="curve" smooth="yes"/>
      <point x="397" y="-8"/>
      <point x="470" y="19"/>
      <point x="529" y="74" type="curve" smooth="yes"/>
      <point x="586" y="128"/>
      <point x="621" y="197"/>
      <point x="631" y="281" type="curve" smooth="yes"/>
      <point x="675" y="644" type="line"/>
      <point x="733" y="655" type="line" smooth="yes"/>
      <point x="744" y="657"/>
      <point x="750" y="664"/>
      <point x="751" y="674" type="curve" smooth="yes"/>
      <point x="756" y="716" type="line"/>
    </contour>
    <contour>
      <point x="568" y="773" type="line"/>
      <point x="462" y="878" type="line"/>
      <point x="374" y="878" type="line"/>
      <point x="242" y="773" type="line"/>
      <point x="310" y="773" type="line" smooth="yes"/>
      <point x="314" y="773"/>
      <point x="318" y="774"/>
      <point x="323" y="775" type="curve" smooth="yes"/>
      <point x="328" y="776"/>
      <point x="332" y="778"/>
      <point x="335" y="780" type="curve" smooth="yes"/>
      <point x="406" y="827" type="line"/>
      <point x="407" y="828"/>
      <point x="410" y="829"/>
      <point x="413" y="831" type="curve"/>
      <point x="414" y="830"/>
      <point x="415" y="828"/>
      <point x="418" y="827" type="curve"/>
      <point x="477" y="779" type="line"/>
      <point x="480" y="777"/>
      <point x="483" y="776"/>
      <point x="488" y="775" type="curve" smooth="yes"/>
      <point x="493" y="774"/>
      <point x="497" y="773"/>
      <point x="501" y="773" type="curve" smooth="yes"/>
    </contour>
  </outline>
</glyph>
<glyph name="igrave" format="1">
  <advance width="255"/>
  <unicode hex="00EC"/>
  <note>
    igrave
  </note>
  <outline>
    <contour>
      <point x="194" y="64"/>
      <point x="147" y="73"/>
      <point x="147" y="73" type="curve"/>
      <point x="201" y="506" type="line"/>
      <point x="39" y="506" type="line"/>
      <point x="34" y="463" type="line" smooth="yes"/>
      <point x="33" y="454"/>
      <point x="38" y="447"/>
      <point x="47" y="445" type="curve" smooth="yes"/>
      <point x="56" y="443"/>
      <point x="103" y="434"/>
      <point x="103" y="434" type="curve"/>
      <point x="58" y="73" type="line"/>
      <point x="49" y="0" type="line"/>
      <point x="211" y="0" type="line"/>
      <point x="216" y="43" type="line" smooth="yes"/>
      <point x="217" y="52"/>
      <point x="212" y="60"/>
      <point x="203" y="62" type="curve" smooth="yes"/>
    </contour>
    <contour>
      <point x="233" y="581" type="line"/>
      <point x="173" y="702" type="line" smooth="yes"/>
      <point x="166" y="717"/>
      <point x="159" y="724"/>
      <point x="136" y="724" type="curve" smooth="yes"/>
      <point x="52" y="724" type="line"/>
      <point x="153" y="595" type="line" smooth="yes"/>
      <point x="160" y="586"/>
      <point x="166" y="581"/>
      <point x="182" y="581" type="curve" smooth="yes"/>
    </contour>
  </outline>
</glyph>
<glyph name="divide" format="1">
  <advance width="487"/>
  <unicode hex="00F7"/>
  <note>
    divide
  </note>
  <outline>
    <contour>
      <point x="7" y="370" type="line"/>
      <point x="-2" y="302" type="line"/>
      <point x="478" y="302" type="line"/>
      <point x="486" y="370" type="line"/>
    </contour>
    <contour>
      <point x="200" y="504"/>
      <point x="201" y="496"/>
      <point x="203" y="488" type="curve" smooth="yes"/>
      <point x="205" y="480"/>
      <point x="209" y="474"/>
      <point x="214" y="468" type="curve" smooth="yes"/>
      <point x="219" y="462"/>
      <point x="225" y="458"/>
      <point x="232" y="455" type="curve" smooth="yes"/>
      <point x="239" y="452"/>
      <point x="247" y="450"/>
      <point x="256" y="450" type="curve" smooth="yes"/>
      <point x="265" y="450"/>
      <point x="273" y="452"/>
      <point x="281" y="455" type="curve" smooth="yes"/>
      <point x="289" y="458"/>
      <point x="296" y="462"/>
      <point x="302" y="468" type="curve" smooth="yes"/>
      <point x="308" y="474"/>
      <point x="314" y="480"/>
      <point x="318" y="488" type="curve" smooth="yes"/>
      <point x="322" y="496"/>
      <point x="325" y="504"/>
      <point x="326" y="513" type="curve" smooth="yes"/>
      <point x="327" y="522"/>
      <point x="326" y="530"/>
      <point x="324" y="538" type="curve" smooth="yes"/>
      <point x="322" y="546"/>
      <point x="318" y="552"/>
      <point x="313" y="558" type="curve" smooth="yes"/>
      <point x="308" y="564"/>
      <point x="302" y="568"/>
      <point x="295" y="571" type="curve" smooth="yes"/>
      <point x="288" y="574"/>
      <point x="280" y="576"/>
      <point x="271" y="576" type="curve" smooth="yes"/>
      <point x="262" y="576"/>
      <point x="254" y="574"/>
      <point x="246" y="571" type="curve" smooth="yes"/>
      <point x="238" y="568"/>
      <point x="231" y="564"/>
      <point x="225" y="558" type="curve" smooth="yes"/>
      <point x="219" y="552"/>
      <point x="213" y="546"/>
      <point x="209" y="538" type="curve" smooth="yes"/>
      <point x="205" y="530"/>
      <point x="202" y="522"/>
      <point x="201" y="513" type="curve" smooth="yes"/>
    </contour>
    <contour>
      <point x="157" y="148"/>
      <point x="157" y="140"/>
      <point x="159" y="132" type="curve" smooth="yes"/>
      <point x="161" y="124"/>
      <point x="165" y="118"/>
      <point x="170" y="112" type="curve" smooth="yes"/>
      <point x="175" y="106"/>
      <point x="181" y="102"/>
      <point x="188" y="99" type="curve" smooth="yes"/>
      <point x="195" y="96"/>
      <point x="203" y="94"/>
      <point x="212" y="94" type="curve" smooth="yes"/>
      <point x="221" y="94"/>
      <point x="229" y="96"/>
      <point x="237" y="99" type="curve" smooth="yes"/>
      <point x="245" y="102"/>
      <point x="252" y="106"/>
      <point x="258" y="112" type="curve" smooth="yes"/>
      <point x="264" y="118"/>
      <point x="270" y="124"/>
      <point x="274" y="132" type="curve" smooth="yes"/>
      <point x="278" y="140"/>
      <point x="281" y="148"/>
      <point x="282" y="157" type="curve" smooth="yes"/>
      <point x="283" y="166"/>
      <point x="282" y="174"/>
      <point x="280" y="182" type="curve" smooth="yes"/>
      <point x="278" y="190"/>
      <point x="274" y="196"/>
      <point x="269" y="202" type="curve" smooth="yes"/>
      <point x="264" y="208"/>
      <point x="258" y="212"/>
      <point x="251" y="215" type="curve" smooth="yes"/>
      <point x="244" y="218"/>
      <point x="236" y="220"/>
      <point x="227" y="220" type="curve" smooth="yes"/>
      <point x="218" y="220"/>
      <point x="210" y="218"/>
      <point x="202" y="215" type="curve" smooth="yes"/>
      <point x="194" y="212"/>
      <point x="187" y="208"/>
      <point x="181" y="202" type="curve" smooth="yes"/>
      <point x="175" y="196"/>
      <point x="169" y="190"/>
      <point x="165" y="182" type="curve" smooth="yes"/>
      <point x="161" y="174"/>
      <point x="159" y="166"/>
      <point x="158" y="157" type="curve" smooth="yes"/>
    </contour>
  </outline>
</glyph>
<glyph name="thorn" format="1">
  <advance width="516"/>
  <unicode hex="00FE"/>
  <note>
    thorn
  </note>
  <outline>
    <contour>
      <point x="-6" y="-172" type="line"/>
      <point x="84" y="-172" type="line"/>
      <point x="112" y="59" type="line"/>
      <point x="126" y="38"/>
      <point x="143" y="22"/>
      <point x="164" y="10" type="curve" smooth="yes"/>
      <point x="185" y="-2"/>
      <point x="211" y="-7"/>
      <point x="243" y="-7" type="curve" smooth="yes"/>
      <point x="277" y="-7"/>
      <point x="308" y="-1"/>
      <point x="337" y="13" type="curve" smooth="yes"/>
      <point x="366" y="27"/>
      <point x="390" y="45"/>
      <point x="412" y="69" type="curve" smooth="yes"/>
      <point x="434" y="93"/>
      <point x="452" y="120"/>
      <point x="466" y="152" type="curve" smooth="yes"/>
      <point x="480" y="184"/>
      <point x="489" y="219"/>
      <point x="494" y="256" type="curve" smooth="yes"/>
      <point x="499" y="298"/>
      <point x="499" y="336"/>
      <point x="494" y="368" type="curve" smooth="yes"/>
      <point x="489" y="400"/>
      <point x="479" y="427"/>
      <point x="465" y="449" type="curve" smooth="yes"/>
      <point x="451" y="471"/>
      <point x="433" y="487"/>
      <point x="411" y="498" type="curve" smooth="yes"/>
      <point x="389" y="509"/>
      <point x="363" y="514"/>
      <point x="334" y="514" type="curve" smooth="yes"/>
      <point x="299" y="514"/>
      <point x="267" y="507"/>
      <point x="238" y="492" type="curve" smooth="yes"/>
      <point x="209" y="477"/>
      <point x="182" y="458"/>
      <point x="158" y="433" type="curve"/>
      <point x="195" y="736" type="line"/>
      <point x="106" y="736" type="line"/>
    </contour>
    <contour>
      <point x="316" y="444"/>
      <point x="334" y="440"/>
      <point x="349" y="433" type="curve" smooth="yes"/>
      <point x="364" y="426"/>
      <point x="376" y="415"/>
      <point x="385" y="400" type="curve" smooth="yes"/>
      <point x="394" y="385"/>
      <point x="400" y="366"/>
      <point x="403" y="342" type="curve" smooth="yes"/>
      <point x="406" y="318"/>
      <point x="406" y="290"/>
      <point x="402" y="257" type="curve" smooth="yes"/>
      <point x="394" y="195"/>
      <point x="375" y="147"/>
      <point x="346" y="113" type="curve" smooth="yes"/>
      <point x="317" y="79"/>
      <point x="278" y="62"/>
      <point x="231" y="62" type="curve" smooth="yes"/>
      <point x="207" y="62"/>
      <point x="186" y="67"/>
      <point x="168" y="76" type="curve" smooth="yes"/>
      <point x="150" y="85"/>
      <point x="134" y="100"/>
      <point x="120" y="122" type="curve"/>
      <point x="150" y="367" type="line"/>
      <point x="171" y="391"/>
      <point x="194" y="411"/>
      <point x="217" y="424" type="curve" smooth="yes"/>
      <point x="240" y="437"/>
      <point x="267" y="444"/>
      <point x="296" y="444" type="curve" smooth="yes"/>
    </contour>
  </outline>
</glyph>
<glyph name="Nacute" format="1">
  <advance width="776"/>
  <unicode hex="0143"/>
  <note>
    Nacute
  </note>
  <outline>
    <contour>
      <point x="232" y="700" type="line"/>
      <point x="227" y="707"/>
      <point x="223" y="711"/>
      <point x="219" y="713" type="curve" smooth="yes"/>
      <point x="215" y="715"/>
      <point x="209" y="716"/>
      <point x="200" y="716" type="curve" smooth="yes"/>
      <point x="78" y="716" type="line"/>
      <point x="73" y="674" type="line" smooth="yes"/>
      <point x="72" y="664"/>
      <point x="76" y="657"/>
      <point x="86" y="655" type="curve" smooth="yes"/>
      <point x="92" y="654"/>
      <point x="111" y="649"/>
      <point x="142" y="643" type="curve"/>
      <point x="71" y="73" type="line"/>
      <point x="13" y="61" type="line" smooth="yes"/>
      <point x="3" y="59"/>
      <point x="-3" y="53"/>
      <point x="-4" y="43" type="curve"/>
      <point x="-10" y="0" type="line"/>
      <point x="229" y="0" type="line"/>
      <point x="234" y="43" type="line" smooth="yes"/>
      <point x="235" y="53"/>
      <point x="232" y="59"/>
      <point x="222" y="61" type="curve" smooth="yes"/>
      <point x="217" y="62"/>
      <point x="195" y="66"/>
      <point x="156" y="73" type="curve"/>
      <point x="210" y="510" type="line" smooth="yes"/>
      <point x="212" y="524"/>
      <point x="213" y="540"/>
      <point x="214" y="557" type="curve"/>
      <point x="562" y="18" type="line" smooth="yes"/>
      <point x="570" y="6"/>
      <point x="580" y="0"/>
      <point x="594" y="0" type="curve" smooth="yes"/>
      <point x="644" y="0" type="line"/>
      <point x="723" y="644" type="line"/>
      <point x="781" y="655" type="line" smooth="yes"/>
      <point x="792" y="657"/>
      <point x="798" y="664"/>
      <point x="799" y="674" type="curve" smooth="yes"/>
      <point x="804" y="716" type="line"/>
      <point x="731" y="716" type="line"/>
      <point x="646" y="716" type="line"/>
      <point x="565" y="716" type="line"/>
      <point x="560" y="674" type="line" smooth="yes"/>
      <point x="559" y="664"/>
      <point x="562" y="657"/>
      <point x="572" y="655" type="curve" smooth="yes"/>
      <point x="577" y="654"/>
      <point x="600" y="650"/>
      <point x="638" y="643" type="curve"/>
      <point x="584" y="209" type="line" smooth="yes"/>
      <point x="582" y="191"/>
      <point x="581" y="174"/>
      <point x="581" y="160" type="curve"/>
    </contour>
    <contour>
      <point x="646" y="891" type="line"/>
      <point x="545" y="891" type="line" smooth="yes"/>
      <point x="539" y="891"/>
      <point x="535" y="890"/>
      <point x="531" y="890" type="curve" smooth="yes"/>
      <point x="527" y="890"/>
      <point x="524" y="888"/>
      <point x="521" y="887" type="curve" smooth="yes"/>
      <point x="518" y="886"/>
      <point x="515" y="884"/>
      <point x="512" y="882" type="curve" smooth="yes"/>
      <point x="509" y="880"/>
      <point x="505" y="877"/>
      <point x="501" y="874" type="curve"/>
      <point x="383" y="773" type="line"/>
      <point x="452" y="773" type="line" smooth="yes"/>
      <point x="459" y="773"/>
      <point x="466" y="774"/>
      <point x="470" y="775" type="curve" smooth="yes"/>
      <point x="474" y="776"/>
      <point x="480" y="779"/>
      <point x="486" y="783" type="curve" smooth="yes"/>
    </contour>
  </outline>
</glyph>
<glyph name="circumflexcomb" format="1">
  <advance width="381"/>
  <unicode hex="0302"/>
  <outline>
    <component base="circumflex"/>
    <contour>
      <point x="235" y="716" type="move" name="top"/>
    </contour>
    <contour>
      <point x="210" y="506" type="move" name="_top"/>
    </contour>
  </outline>
</glyph>
<glyph name="commaaccentcomb" format="1">
  <advance width="229"/>
  <unicode hex="0326"/>
  <outline>
    <component base="comma" xOffset="-40" yOffset="-171"/>
    <contour>
      <point x="85" y="0" type="move" name="_bottom"/>
    </contour>
    <contour>
      <point x="48" y="-307" type="move" name="bottom"/>
    </contour>
  </outline>
</glyph>
<glyph name="endash" format="1">
  <advance width="511"/>
  <unicode hex="2013"/>
  <note>
    endash
  </note>
  <outline>
    <contour>
      <point x="60" y="328" type="line"/>
      <point x="52" y="262" type="line"/>
      <point x="452" y="262" type="line"/>
      <point x="460" y="328" type="line"/>
    </contour>
  </outline>
</glyph>
<glyph name="dagger" format="1">
  <advance width="466"/>
  <unicode hex="2020"/>
  <note>
    dagger
  </note>
  <outline>
    <contour>
      <point x="6" y="429" type="line"/>
      <point x="202" y="429" type="line"/>
      <point x="176" y="221" type="line"/>
      <point x="117" y="-168" type="line"/>
      <point x="129" y="-176"/>
      <point x="144" y="-179"/>
      <point x="162" y="-179" type="curve" smooth="yes"/>
      <point x="180" y="-179"/>
      <point x="196" y="-176"/>
      <point x="210" y="-168" type="curve"/>
      <point x="246" y="221" type="line"/>
      <point x="272" y="429" type="line"/>
      <point x="468" y="429" type="line"/>
      <point x="471" y="459" type="line" smooth="yes"/>
      <point x="472" y="469"/>
      <point x="471" y="478"/>
      <point x="465" y="486" type="curve" smooth="yes"/>
      <point x="459" y="494"/>
      <point x="449" y="498"/>
      <point x="434" y="498" type="curve" smooth="yes"/>
      <point x="411" y="498"/>
      <point x="385" y="496"/>
      <point x="358" y="492" type="curve" smooth="yes"/>
      <point x="331" y="488"/>
      <point x="304" y="484"/>
      <point x="278" y="482" type="curve"/>
      <point x="319" y="726" type="line"/>
      <point x="307" y="734"/>
      <point x="292" y="737"/>
      <point x="274" y="737" type="curve" smooth="yes"/>
      <point x="256" y="737"/>
      <point x="240" y="734"/>
      <point x="226" y="726" type="curve"/>
      <point x="208" y="482" type="line"/>
      <point x="195" y="483"/>
      <point x="183" y="484"/>
      <point x="170" y="486" type="curve" smooth="yes"/>
      <point x="157" y="488"/>
      <point x="143" y="490"/>
      <point x="130" y="492" type="curve" smooth="yes"/>
      <point x="117" y="494"/>
      <point x="104" y="494"/>
      <point x="92" y="496" type="curve" smooth="yes"/>
      <point x="80" y="498"/>
      <point x="67" y="498"/>
      <point x="56" y="498" type="curve" smooth="yes"/>
      <point x="42" y="498"/>
      <point x="31" y="494"/>
      <point x="23" y="486" type="curve" smooth="yes"/>
      <point x="15" y="478"/>
      <point x="10" y="469"/>
      <point x="9" y="459" type="curve" smooth="yes"/>
    </contour>
  </outline>
</glyph>
<glyph name="daggerdbl" format="1">
  <advance width="502"/>
  <unicode hex="2021"/>
  <note>
    daggerdbl
  </note>
  <outline>
    <contour>
      <point x="36" y="429" type="line"/>
      <point x="233" y="429" type="line"/>
      <point x="196" y="129" type="line"/>
      <point x="0" y="129" type="line"/>
      <point x="-4" y="99" type="line" smooth="yes"/>
      <point x="-5" y="89"/>
      <point x="-3" y="80"/>
      <point x="3" y="72" type="curve" smooth="yes"/>
      <point x="9" y="64"/>
      <point x="19" y="60"/>
      <point x="33" y="60" type="curve" smooth="yes"/>
      <point x="56" y="60"/>
      <point x="81" y="62"/>
      <point x="109" y="66" type="curve" smooth="yes"/>
      <point x="137" y="70"/>
      <point x="164" y="74"/>
      <point x="190" y="76" type="curve"/>
      <point x="148" y="-168" type="line"/>
      <point x="160" y="-176"/>
      <point x="175" y="-179"/>
      <point x="193" y="-179" type="curve" smooth="yes"/>
      <point x="211" y="-179"/>
      <point x="227" y="-176"/>
      <point x="241" y="-168" type="curve"/>
      <point x="259" y="76" type="line"/>
      <point x="285" y="74"/>
      <point x="311" y="70"/>
      <point x="337" y="66" type="curve" smooth="yes"/>
      <point x="363" y="62"/>
      <point x="388" y="60"/>
      <point x="411" y="60" type="curve" smooth="yes"/>
      <point x="426" y="60"/>
      <point x="436" y="64"/>
      <point x="444" y="72" type="curve" smooth="yes"/>
      <point x="452" y="80"/>
      <point x="457" y="89"/>
      <point x="458" y="99" type="curve" smooth="yes"/>
      <point x="462" y="129" type="line"/>
      <point x="266" y="129" type="line"/>
      <point x="302" y="429" type="line"/>
      <point x="498" y="429" type="line"/>
      <point x="502" y="459" type="line" smooth="yes"/>
      <point x="503" y="469"/>
      <point x="501" y="478"/>
      <point x="495" y="486" type="curve" smooth="yes"/>
      <point x="489" y="494"/>
      <point x="480" y="498"/>
      <point x="465" y="498" type="curve" smooth="yes"/>
      <point x="442" y="498"/>
      <point x="416" y="496"/>
      <point x="389" y="492" type="curve" smooth="yes"/>
      <point x="362" y="488"/>
      <point x="335" y="484"/>
      <point x="309" y="482" type="curve"/>
      <point x="350" y="726" type="line"/>
      <point x="338" y="734"/>
      <point x="323" y="737"/>
      <point x="305" y="737" type="curve" smooth="yes"/>
      <point x="287" y="737"/>
      <point x="271" y="734"/>
      <point x="257" y="726" type="curve"/>
      <point x="239" y="482" type="line"/>
      <point x="226" y="483"/>
      <point x="213" y="484"/>
      <point x="200" y="486" type="curve" smooth="yes"/>
      <point x="161" y="492" type="line" smooth="yes"/>
      <point x="148" y="494"/>
      <point x="135" y="494"/>
      <point x="123" y="496" type="curve" smooth="yes"/>
      <point x="111" y="498"/>
      <point x="98" y="498"/>
      <point x="87" y="498" type="curve" smooth="yes"/>
      <point x="73" y="498"/>
      <point x="62" y="494"/>
      <point x="54" y="486" type="curve" smooth="yes"/>
      <point x="46" y="478"/>
      <point x="41" y="469"/>
      <point x="40" y="459" type="curve" smooth="yes"/>
    </contour>
  </outline>
</glyph>
<glyph name="product" format="1">
  <advance width="670"/>
  <unicode hex="220F"/>
  <note>
    product
  </note>
  <outline>
    <contour>
      <point x="673" y="716" type="line"/>
      <point x="52" y="716" type="line"/>
      <point x="42" y="640" type="line"/>
      <point x="136" y="640" type="line"/>
      <point x="36" y="-172" type="line"/>
      <point x="128" y="-172" type="line"/>
      <point x="228" y="640" type="line"/>
      <point x="478" y="640" type="line"/>
      <point x="378" y="-172" type="line"/>
      <point x="470" y="-172" type="line"/>
      <point x="570" y="640" type="line"/>
      <point x="664" y="640" type="line"/>
    </contour>
  </outline>
</glyph>
<glyph name="fl" format="1">
  <advance width="652"/>
  <unicode hex="FB02"/>
  <note>
    fl
  </note>
  <outline>
    <contour>
      <point x="586" y="60" type="line" smooth="yes"/>
      <point x="534" y="60"/>
      <point x="518" y="83"/>
      <point x="524" y="136" type="curve" smooth="yes"/>
      <point x="596" y="724" type="line"/>
      <point x="546" y="724" type="line"/>
      <point x="393" y="730" type="line"/>
      <point x="262" y="730"/>
      <point x="174" y="643"/>
      <point x="159" y="523" type="curve" smooth="yes"/>
      <point x="156" y="497" type="line"/>
      <point x="76" y="496" type="line"/>
      <point x="72" y="460" type="line" smooth="yes"/>
      <point x="71" y="448"/>
      <point x="77" y="441"/>
      <point x="93" y="437" type="curve"/>
      <point x="148" y="430" type="line"/>
      <point x="91" y="-37" type="line" smooth="yes"/>
      <point x="85" y="-88"/>
      <point x="64" y="-114"/>
      <point x="9" y="-114" type="curve" smooth="yes"/>
      <point x="-10" y="-114" type="line" smooth="yes"/>
      <point x="-19" y="-114"/>
      <point x="-25" y="-117"/>
      <point x="-27" y="-124" type="curve"/>
      <point x="-37" y="-172" type="line"/>
      <point x="-20" y="-179"/>
      <point x="0" y="-182"/>
      <point x="23" y="-182" type="curve" smooth="yes"/>
      <point x="118" y="-182"/>
      <point x="169" y="-124"/>
      <point x="180" y="-38" type="curve" smooth="yes"/>
      <point x="199" y="119"/>
      <point x="218" y="275"/>
      <point x="237" y="432" type="curve"/>
      <point x="381" y="432" type="line"/>
      <point x="389" y="496" type="line"/>
      <point x="243" y="496" type="line"/>
      <point x="246" y="523" type="line" smooth="yes"/>
      <point x="256" y="607"/>
      <point x="307" y="663"/>
      <point x="398" y="663" type="curve" smooth="yes"/>
      <point x="500" y="663" type="line"/>
      <point x="435" y="137" type="line" smooth="yes"/>
      <point x="424" y="46"/>
      <point x="470" y="-8"/>
      <point x="557" y="-8" type="curve" smooth="yes"/>
      <point x="580" y="-8"/>
      <point x="600" y="-5"/>
      <point x="619" y="2" type="curve"/>
      <point x="621" y="50" type="line"/>
      <point x="621" y="59"/>
      <point x="615" y="60"/>
      <point x="606" y="60" type="curve" smooth="yes"/>
    </contour>
  </outline>
</glyph>
<glyph name="acute.case" format="1">
  <advance width="421"/>
  <note>
    acute.case
  </note>
  <outline>
    <contour>
      <point x="344" y="891" type="line"/>
      <point x="244" y="891" type="line" smooth="yes"/>
      <point x="238" y="891"/>
      <point x="234" y="890"/>
      <point x="230" y="890" type="curve" smooth="yes"/>
      <point x="226" y="890"/>
      <point x="223" y="889"/>
      <point x="220" y="888" type="curve" smooth="yes"/>
      <point x="217" y="887"/>
      <point x="213" y="884"/>
      <point x="210" y="882" type="curve" smooth="yes"/>
      <point x="207" y="880"/>
      <point x="204" y="877"/>
      <point x="200" y="874" type="curve"/>
      <point x="82" y="773" type="line"/>
      <point x="151" y="773" type="line" smooth="yes"/>
      <point x="158" y="773"/>
      <point x="163" y="774"/>
      <point x="168" y="775" type="curve"/>
      <point x="172" y="776"/>
      <point x="178" y="779"/>
      <point x="184" y="783" type="curve" smooth="yes"/>
    </contour>
  </outline>
</glyph>
<glyph name="undercommaaccent" format="1">
  <advance width="251"/>
  <note>
    undercommaaccent
  </note>
  <outline>
    <contour>
      <point x="106" y="-40" type="line"/>
      <point x="64" y="-182" type="line"/>
      <point x="96" y="-182" type="line" smooth="yes"/>
      <point x="104" y="-182"/>
      <point x="111" y="-180"/>
      <point x="116" y="-178" type="curve" smooth="yes"/>
      <point x="121" y="-176"/>
      <point x="126" y="-171"/>
      <point x="130" y="-164" type="curve"/>
      <point x="138" y="-147"/>
      <point x="145" y="-132"/>
      <point x="151" y="-120" type="curve" smooth="yes"/>
      <point x="157" y="-108"/>
      <point x="161" y="-97"/>
      <point x="165" y="-89" type="curve" smooth="yes"/>
      <point x="169" y="-81"/>
      <point x="171" y="-74"/>
      <point x="172" y="-69" type="curve" smooth="yes"/>
      <point x="173" y="-64"/>
      <point x="175" y="-59"/>
      <point x="175" y="-56" type="curve" smooth="yes"/>
      <point x="175" y="-52"/>
      <point x="174" y="-49"/>
      <point x="173" y="-45" type="curve" smooth="yes"/>
      <point x="172" y="-41"/>
      <point x="168" y="-40"/>
      <point x="160" y="-40" type="curve" smooth="yes"/>
    </contour>
  </outline>
</glyph>
